<?xml version="1.0" encoding="utf-8"?>
<!-- Generator: Adobe Illustrator 23.0.5, SVG Export Plug-In . SVG Version: 6.00 Build 0)  -->
<svg version="1.1" id="Capa_1" xmlns="http://www.w3.org/2000/svg" xmlns:xlink="http://www.w3.org/1999/xlink" x="0px" y="0px"
	 viewBox="0 0 261 154" style="enable-background:new 0 0 261 154;" xml:space="preserve">
<style type="text/css">
	.st0{clip-path:url(#SVGID_2_);}
	.st1{fill:#FFFFFF;}
	.st2{fill:#E5E5E6;}
	.st3{fill:#59595C;}
	.st4{fill:#59595B;}
	.st5{fill:#808083;}
	.st6{fill:#5EA49B;}
	.st7{fill:#E5E4E4;}
	.st8{opacity:0.5;}
	.st9{clip-path:url(#SVGID_4_);}
	.st10{fill:#DADD7A;}
	.st11{fill:#F1EFEA;}
	.st12{fill:#DBDBDB;}
	.st13{fill:#A5A5A9;}
	.st14{fill:#6D6E6F;}
	.st15{fill:#A5A6A9;}
	.st16{fill:#CFD1D2;}
	.st17{clip-path:url(#SVGID_6_);}
	.st18{clip-path:url(#SVGID_8_);}
	.st19{clip-path:url(#SVGID_10_);}
	.st20{clip-path:url(#SVGID_12_);}
	.st21{clip-path:url(#SVGID_14_);}
	.st22{clip-path:url(#SVGID_16_);}
	.st23{fill:#BCB39A;}
	.st24{fill:#434244;}
</style>
<g>
	<defs>
		<rect id="SVGID_1_" y="0.17" width="261" height="154"/>
	</defs>
	<clipPath id="SVGID_2_">
		<use xlink:href="#SVGID_1_"  style="overflow:visible;"/>
	</clipPath>
	<g class="st0">
		<rect y="-4.17" class="st1" width="261" height="162.69"/>
		<g>
			<path class="st2" d="M240.47,15.16c-2.02,0-3.66-1.64-3.66-3.66c0-2.02,1.64-3.66,3.66-3.66c2.02,0,3.66,1.64,3.66,3.66
				C244.13,13.51,242.49,15.16,240.47,15.16z M240.47,8.87c-1.45,0-2.62,1.18-2.62,2.62c0,1.45,1.18,2.62,2.62,2.62
				c1.45,0,2.62-1.18,2.62-2.62C243.09,10.05,241.91,8.87,240.47,8.87z"/>
		</g>
		<g>
			<path class="st2" d="M25.42,148.61c-7.37,0-13.37-6-13.37-13.37c0-7.37,6-13.37,13.37-13.37c7.37,0,13.37,6,13.37,13.37
				C38.79,142.62,32.79,148.61,25.42,148.61z M25.42,122.92c-6.8,0-12.33,5.53-12.33,12.33s5.53,12.33,12.33,12.33
				c6.8,0,12.33-5.53,12.33-12.33S32.22,122.92,25.42,122.92z"/>
		</g>
		<g>
			<path class="st2" d="M223.84,148.61c-7.37,0-13.37-6-13.37-13.37c0-7.37,6-13.37,13.37-13.37c7.37,0,13.37,6,13.37,13.37
				C237.2,142.62,231.21,148.61,223.84,148.61z M223.84,122.92c-6.8,0-12.33,5.53-12.33,12.33s5.53,12.33,12.33,12.33
				c6.8,0,12.33-5.53,12.33-12.33S230.63,122.92,223.84,122.92z"/>
		</g>
		<g>
			<path class="st2" d="M79.39,102.4c-2.02,0-3.67-1.65-3.67-3.67c0-2.02,1.65-3.67,3.67-3.67c2.02,0,3.67,1.65,3.67,3.67
				C83.06,100.76,81.41,102.4,79.39,102.4z M79.39,96.1c-1.45,0-2.63,1.18-2.63,2.63c0,1.45,1.18,2.63,2.63,2.63
				c1.45,0,2.63-1.18,2.63-2.63C82.02,97.28,80.84,96.1,79.39,96.1z"/>
		</g>
		<g>
			<path class="st2" d="M236.68,138.97c-3.18,0-5.77-2.59-5.77-5.77c0-3.18,2.59-5.77,5.77-5.77c3.18,0,5.77,2.59,5.77,5.77
				C242.46,136.38,239.87,138.97,236.68,138.97z M236.68,128.46c-2.61,0-4.74,2.12-4.74,4.74c0,2.61,2.12,4.74,4.74,4.74
				c2.61,0,4.74-2.12,4.74-4.74C241.42,130.58,239.29,128.46,236.68,128.46z"/>
		</g>
		<g>
			<path class="st2" d="M16.94,66.91c-4.31,0-7.82-3.51-7.82-7.82s3.51-7.82,7.82-7.82c4.31,0,7.82,3.51,7.82,7.82
				S21.25,66.91,16.94,66.91z M16.94,52.3c-3.74,0-6.78,3.04-6.78,6.78c0,3.74,3.04,6.78,6.78,6.78c3.74,0,6.78-3.04,6.78-6.78
				C23.73,55.34,20.68,52.3,16.94,52.3z"/>
		</g>
		<g>
			<g>
				<g>
					<path class="st2" d="M130.46,127.17c-5.38,0-10.79-0.9-16.02-2.72l0.34-0.98c12.03,4.18,24.97,3.42,36.43-2.13
						c11.46-5.55,20.08-15.24,24.25-27.27c4.18-12.03,3.42-24.97-2.13-36.43c-5.55-11.46-15.24-20.08-27.27-24.25
						c-12.03-4.18-24.97-3.42-36.43,2.13S89.55,50.75,85.38,62.78c-4.18,12.03-3.42,24.97,2.13,36.43
						c2.79,5.75,6.61,10.8,11.37,14.99l-0.69,0.78c-4.86-4.28-8.77-9.44-11.62-15.31c-5.67-11.71-6.45-24.93-2.18-37.23
						c4.27-12.29,13.07-22.19,24.78-27.86c11.71-5.67,24.93-6.45,37.23-2.18c12.29,4.27,22.19,13.07,27.86,24.78
						c5.67,11.71,6.45,24.93,2.18,37.23c-4.27,12.29-13.07,22.19-24.78,27.86C144.94,125.53,137.72,127.17,130.46,127.17z"/>
				</g>
			</g>
			<g>
				<g>
					<path class="st2" d="M130.48,129.97c-1.09,0-2.19-0.03-3.29-0.1c-6.68-0.42-13.11-2.1-19.12-4.98
						c-6.22-2.99-11.71-7.15-16.31-12.37c-2.81-3.19-5.22-6.7-7.15-10.45l0.92-0.48c1.9,3.67,4.26,7.11,7.01,10.24
						c8.92,10.12,21.25,16.16,34.71,17c13.46,0.85,26.45-3.6,36.57-12.52c10.12-8.92,16.16-21.25,17-34.71
						c0.85-13.46-3.6-26.45-12.52-36.57c-4.8-5.44-10.55-9.69-17.11-12.64c-6.34-2.85-13.09-4.35-20.06-4.45l0.01-1.04
						c7.12,0.1,14.01,1.63,20.47,4.54c6.69,3.01,12.57,7.36,17.46,12.91c4.6,5.22,8.04,11.18,10.23,17.73
						c2.11,6.32,2.97,12.91,2.55,19.59c-0.42,6.68-2.1,13.11-4.98,19.12c-2.99,6.22-7.15,11.71-12.37,16.31
						c-5.22,4.6-11.18,8.04-17.73,10.23C141.5,129.08,136.03,129.97,130.48,129.97z"/>
				</g>
			</g>
			<g>
				<g>
					<path class="st2" d="M78.3,95.97c-2.25-6.8-3.15-13.85-2.66-20.97c0.5-7.37,2.47-14.46,5.85-21.1
						c3.35-6.59,7.9-12.32,13.51-17.04c5.42-4.56,11.59-7.99,18.36-10.19c6.76-2.2,13.78-3.06,20.84-2.56
						c7.31,0.52,14.36,2.48,20.95,5.84c5.92,3.01,11.17,7.01,15.61,11.87c4.29,4.7,7.7,10.08,10.14,15.98
						c4.92,11.91,5.51,25.2,1.64,37.41l-0.99-0.31c3.79-11.99,3.22-25.02-1.61-36.7c-2.4-5.79-5.74-11.07-9.95-15.68
						c-4.35-4.77-9.51-8.69-15.31-11.65c-6.46-3.29-13.38-5.22-20.55-5.73c-6.93-0.49-13.81,0.35-20.44,2.51
						c-6.64,2.16-12.7,5.52-18.01,9.99c-5.5,4.63-9.96,10.26-13.25,16.72c-3.31,6.51-5.24,13.47-5.74,20.7
						c-0.48,6.98,0.4,13.9,2.61,20.57L78.3,95.97z"/>
				</g>
			</g>
		</g>
		<g>
			<path class="st3" d="M31.81,32.86l-0.47-0.23l0.05-0.1l0.47,0.23L31.81,32.86z M32.09,32.29l-0.47-0.23l0.45-0.93l0.47,0.23
				L32.09,32.29z M32.77,30.89l-0.47-0.23l0.45-0.93l0.47,0.23L32.77,30.89z M33.45,29.49l-0.47-0.23l0.45-0.93l0.47,0.23
				L33.45,29.49z M34.13,28.09l-0.47-0.23l0.45-0.93l0.47,0.23L34.13,28.09z M34.81,26.68l-0.47-0.23l0.45-0.93l0.47,0.23
				L34.81,26.68z"/>
		</g>
		<g>
			<polygon class="st3" points="211.57,104.88 206.75,104.88 203.5,101.62 198.92,101.62 194.95,97.65 189.55,97.65 185.58,101.62 
				175.87,101.62 175.87,101.1 185.37,101.1 189.34,97.13 195.16,97.13 199.13,101.1 203.71,101.1 206.97,104.36 211.36,104.36 
				214.61,101.1 221.51,101.1 221.51,101.62 214.83,101.62 			"/>
		</g>
		<g>
			<polygon class="st3" points="241.59,97.25 235.76,97.25 231.79,93.28 227.21,93.28 223.95,90.02 219.56,90.02 216.31,93.28 
				209.41,93.28 209.41,92.76 216.09,92.76 219.35,89.5 224.17,89.5 227.43,92.76 232,92.76 235.97,96.73 241.37,96.73 
				245.34,92.76 253.01,92.76 253.01,93.28 245.56,93.28 			"/>
		</g>
		<g>
			<polygon class="st3" points="180.48,101.19 180.12,100.82 189.11,92 200.13,92 203.79,96.23 224.31,96.23 229.39,99.52 
				229.1,99.95 224.16,96.75 203.55,96.75 199.89,92.52 189.32,92.52 			"/>
		</g>
		<g>
			
				<rect x="182.2" y="91.37" transform="matrix(0.7071 -0.7071 0.7071 0.7071 -13.3187 156.6699)" class="st3" width="0.52" height="6.09"/>
		</g>
		<g>
			<g>
				<path class="st4" d="M49.83,26.51c-0.71,0-1.41-0.36-1.8-1.01L39.75,12c-0.29-0.48-0.38-1.05-0.25-1.59
					c0.13-0.55,0.47-1.01,0.95-1.3l0.63-0.38c0.99-0.61,2.29-0.29,2.9,0.7l8.27,13.5c0.29,0.48,0.38,1.05,0.25,1.59
					c-0.13,0.55-0.47,1.01-0.95,1.3l-0.63,0.38C50.58,26.41,50.2,26.51,49.83,26.51z M42.18,9.45c-0.19,0-0.38,0.05-0.56,0.16
					l-0.63,0.38c-0.24,0.15-0.42,0.38-0.48,0.66c-0.07,0.28-0.02,0.56,0.13,0.81l8.27,13.5c0.31,0.5,0.97,0.66,1.47,0.35l0.63-0.38
					c0.24-0.15,0.42-0.38,0.48-0.66c0.07-0.28,0.02-0.56-0.13-0.81L43.1,9.96C42.9,9.63,42.54,9.45,42.18,9.45z"/>
			</g>
			<g>
				<path class="st4" d="M39.03,8.88c-0.71,0-1.41-0.36-1.8-1.01l-0.85-1.39c-0.29-0.48-0.38-1.05-0.25-1.59
					c0.13-0.55,0.47-1.01,0.95-1.3l0.63-0.38c0.99-0.61,2.29-0.29,2.9,0.7l0.85,1.39c0.29,0.48,0.38,1.05,0.25,1.59
					c-0.13,0.55-0.47,1.01-0.95,1.3l-0.63,0.38C39.78,8.79,39.4,8.88,39.03,8.88z M38.8,3.94c-0.19,0-0.38,0.05-0.56,0.16
					l-0.63,0.38c-0.24,0.15-0.42,0.38-0.48,0.66c-0.07,0.28-0.02,0.56,0.13,0.81l0.85,1.39c0.31,0.5,0.97,0.66,1.47,0.35l0.63-0.38
					c0.24-0.15,0.42-0.38,0.48-0.66c0.07-0.28,0.02-0.56-0.13-0.81l0,0l-0.85-1.39C39.52,4.12,39.16,3.94,38.8,3.94z"/>
			</g>
			<g>
				
					<rect x="45.52" y="8.09" transform="matrix(0.8526 -0.5226 0.5226 0.8526 -2.3705 26.6441)" class="st4" width="1.04" height="18.86"/>
			</g>
			<g>
				<path class="st4" d="M53.22,29.24l-5.02-3.41l4.26-2.6L53.22,29.24z M50.12,25.87l1.78,1.21l-0.27-2.14L50.12,25.87z"/>
			</g>
		</g>
		<g>
			<path class="st5" d="M169.6,116.94H89.9v-79.7h79.7V116.94z M90.42,116.42h78.66V37.77H90.42V116.42z"/>
		</g>
		<g>
			<path class="st4" d="M51.94,82.16c-5.56,0-10.8-1.19-14.75-3.36c-4.1-2.25-6.36-5.29-6.36-8.57c0-3.28,2.26-6.32,6.36-8.57
				c3.95-2.17,9.19-3.36,14.75-3.36s10.8,1.19,14.75,3.36c4.1,2.25,6.36,5.29,6.36,8.57c0,3.28-2.26,6.32-6.36,8.57
				C62.74,80.97,57.5,82.16,51.94,82.16z M51.94,59.86c-5.3,0-10.27,1.13-14,3.17c-3.58,1.96-5.55,4.52-5.55,7.2
				c0,2.68,1.97,5.24,5.55,7.2c3.73,2.04,8.7,3.17,14,3.17s10.27-1.13,14-3.17c3.58-1.96,5.55-4.52,5.55-7.2
				c0-2.68-1.97-5.24-5.55-7.2C62.22,60.99,57.24,59.86,51.94,59.86z"/>
		</g>
		<g>
			<g>
				<path class="st6" d="M86.43,28.89c-1.43-1.84-3.77-2.86-6.08-2.27c-2.15,0.54-3.65,2.57-5.9,2.88c-2.31,0.32-3.4-1.99-5.07-3.1
					c-2.07-1.38-4.71-0.58-6.61,0.68c-0.99,0.65-1.92,1.51-3.07,1.87c-1.1,0.36-2.14-0.07-3.13-0.57c-1.49-0.75-2.8,1.49-1.31,2.24
					c1.06,0.54,2.16,0.99,3.36,1.07c1.09,0.06,2.15-0.29,3.1-0.8c1.74-0.93,3.56-3.09,5.74-2.53c0.8,0.2,1.32,1,1.88,1.55
					c0.89,0.87,1.9,1.64,3.11,2.01c2.31,0.69,4.58-0.4,6.49-1.62c0.95-0.61,1.82-1.34,3.02-1.24c1.12,0.09,1.97,0.83,2.63,1.68
					c0.43,0.55,1.38,0.45,1.84,0C86.98,30.18,86.86,29.44,86.43,28.89L86.43,28.89z"/>
			</g>
		</g>
		<g>
			
				<rect x="22.62" y="51.09" transform="matrix(0.5326 -0.8464 0.8464 0.5326 -30.7096 47.0923)" class="st3" width="9.33" height="0.52"/>
		</g>
		<g>
			
				<rect x="36.96" y="33.26" transform="matrix(0.722 -0.6919 0.6919 0.722 -12.3274 36.3578)" class="st3" width="4.23" height="0.52"/>
		</g>
		<g>
			
				<rect x="21.2" y="25.41" transform="matrix(0.7125 -0.7016 0.7016 0.7125 -15.0441 23.7519)" class="st3" width="0.52" height="9.66"/>
		</g>
		<g>
			
				<rect x="11.08" y="42.4" transform="matrix(1 -3.265403e-03 3.265403e-03 1 -0.1392 0.0568)" class="st3" width="12.51" height="0.52"/>
		</g>
		<g>
			
				<rect x="43.95" y="36.59" transform="matrix(0.0796 -0.9968 0.9968 0.0796 -0.5321 82.1344)" class="st3" width="0.52" height="9.53"/>
		</g>
		<g>
			<rect x="94.54" y="3.9" class="st2" width="28.84" height="24.58"/>
		</g>
		<path class="st7" d="M242.52,77.72c-2.02,0-3.66,1.64-3.66,3.66c0,2.02,1.64,3.66,3.66,3.66c2.02,0,3.66-1.64,3.66-3.66
			C246.17,79.36,244.54,77.72,242.52,77.72z"/>
		<g class="st8">
			<g>
				<defs>
					<rect id="SVGID_3_" x="238.86" y="77.72" width="3.66" height="7.31"/>
				</defs>
				<clipPath id="SVGID_4_">
					<use xlink:href="#SVGID_3_"  style="overflow:visible;"/>
				</clipPath>
				<g class="st9">
					<path class="st7" d="M242.52,85.04c-2.02,0-3.66-1.64-3.66-3.66c0-2.02,1.64-3.66,3.66-3.66V85.04z"/>
				</g>
			</g>
		</g>
		<g>
			<path class="st2" d="M236.84,24.49c0,7.18-5.82,13-13,13c-7.18,0-13-5.82-13-13s5.82-13,13-13
				C231.02,11.49,236.84,17.31,236.84,24.49z"/>
		</g>
		<g>
			
				<ellipse transform="matrix(0.1891 -0.982 0.982 0.1891 -108.6995 117.7427)" class="st2" cx="16.94" cy="124.69" rx="5.99" ry="5.99"/>
		</g>
		<g>
			<g>
				<polygon class="st10" points="161.34,58.86 129.75,40.62 98.16,58.86 129.75,77.09 				"/>
			</g>
			<g>
				<polygon class="st6" points="98.16,58.86 98.16,95.33 129.75,113.57 129.75,77.09 				"/>
			</g>
			<g>
				<polygon class="st11" points="129.75,77.09 129.75,113.57 161.34,95.33 161.34,58.86 				"/>
			</g>
		</g>
		<g>
			<rect x="88.59" y="35.93" class="st4" width="3.14" height="3.14"/>
		</g>
		<g>
			<rect x="128.18" y="35.93" class="st4" width="3.14" height="3.14"/>
		</g>
		<g>
			<rect x="167.77" y="35.93" class="st4" width="3.14" height="3.14"/>
		</g>
		<g>
			<rect x="167.77" y="75.03" class="st4" width="3.14" height="3.14"/>
		</g>
		<g>
			<rect x="167.77" y="115.11" class="st4" width="3.14" height="3.14"/>
		</g>
		<g>
			<rect x="128.18" y="115.11" class="st4" width="3.14" height="3.14"/>
		</g>
		<g>
			<rect x="88.59" y="115.11" class="st4" width="3.14" height="3.14"/>
		</g>
		<g>
			<rect x="88.59" y="75.03" class="st4" width="3.14" height="3.14"/>
		</g>
		<g>
			<g>
				<path class="st6" d="M222.04,27.77c0.02-9.3-7.5-16.86-16.8-16.89c-9.3-0.02-16.86,7.5-16.89,16.8
					c-0.02,7.43,4.77,13.74,11.43,16l-0.01,4.9l10.75,0.03l0.01-4.9C217.2,41.48,222.02,35.19,222.04,27.77z"/>
			</g>
			<g>
				<g>
					<polygon class="st12" points="204.25,50.24 199.76,52.69 199.75,54.39 207.35,50.25 					"/>
				</g>
				<g>
					<polygon class="st12" points="210.49,55.24 210.5,53.55 199.74,59.41 199.74,60.97 200.09,60.97 200.06,60.93 					"/>
				</g>
				<g>
					<polygon class="st12" points="210.49,56.9 203.01,60.98 206.11,60.99 210.49,58.6 					"/>
				</g>
				<g>
					<polygon class="st12" points="210.51,50.25 210.38,50.25 199.75,56.05 199.74,57.75 210.5,51.88 					"/>
				</g>
			</g>
			<g>
				<path class="st1" d="M203.02,41.79c-0.03,0-0.05,0-0.08-0.01c-3.3-0.53-6.32-2.22-8.51-4.77c-2.21-2.58-3.42-5.87-3.41-9.26
					c0.01-3.79,1.49-7.34,4.18-10.01c2.68-2.67,6.25-4.13,10.04-4.13c3.79,0.01,7.34,1.49,10.01,4.18
					c2.67,2.68,4.14,6.25,4.13,10.04c-0.02,6.71-4.8,12.54-11.37,13.86c-0.17,0.03-0.34-0.02-0.46-0.13
					c-0.12-0.12-0.18-0.28-0.16-0.45c0.24-1.75,0.82-3.81,1.58-5.7c-0.61,0.15-1.26,0.21-1.82,0.04c-1-0.3-1.95-0.9-2.62-1.63
					c-0.52,0.52-1.16,1.06-1.91,1.62c-0.3,0.23-0.61,0.42-0.91,0.58c0.75,1.76,1.39,3.72,1.81,5.11c0.05,0.17,0.01,0.36-0.11,0.49
					C203.31,41.72,203.17,41.79,203.02,41.79z M205.19,14.64c-3.5,0-6.79,1.36-9.27,3.83c-2.49,2.48-3.86,5.77-3.87,9.28
					c-0.01,3.15,1.12,6.2,3.16,8.58c1.84,2.15,4.32,3.64,7.05,4.26c-0.4-1.25-0.92-2.78-1.52-4.18c-1.21,0.36-2.33,0.09-3.11-0.76
					c-0.84-0.9-1.13-2.31-0.66-3.2c0.29-0.55,0.82-0.82,1.46-0.73c0.93,0.13,1.84,1.19,2.85,3.33c0.23-0.13,0.47-0.28,0.71-0.46
					c0.77-0.57,1.41-1.12,1.92-1.65c-0.45-0.87-0.37-1.72,0.24-2.32c0.68-0.68,1.37-0.62,1.72-0.28c0.21,0.2,0.77,0.98-0.64,2.7
					c0.54,0.62,1.37,1.15,2.21,1.41c0.47,0.14,1.22,0.03,2.07-0.31c0.69-1.46,1.69-3.17,2.7-3.45c0.32-0.09,0.62-0.04,0.89,0.14
					c0.36,0.25,0.54,0.62,0.5,1.05c-0.11,1.08-1.75,2.36-3.31,3.06c-0.79,1.77-1.43,3.78-1.75,5.56c5.7-1.5,9.78-6.71,9.79-12.68
					c0.01-3.51-1.35-6.81-3.83-9.3c-2.48-2.49-5.77-3.86-9.28-3.87C205.21,14.64,205.2,14.64,205.19,14.64z M198.2,32.75
					c-0.17,0-0.25,0.08-0.31,0.19c-0.23,0.44-0.06,1.4,0.51,2.01c0.35,0.38,0.96,0.75,1.92,0.5c-1.14-2.4-1.83-2.67-2.03-2.7
					C198.26,32.75,198.23,32.75,198.2,32.75z M212.51,31.68c-0.17,0-0.68,0.42-1.37,1.6c0.86-0.59,1.4-1.2,1.43-1.51
					C212.57,31.73,212.57,31.72,212.51,31.68C212.51,31.68,212.51,31.68,212.51,31.68z M205.11,31.18
					c-0.06,0.03-0.14,0.09-0.23,0.18c-0.2,0.2-0.24,0.44-0.2,0.68C204.97,31.63,205.08,31.34,205.11,31.18z"/>
			</g>
		</g>
		<g>
			<g>
				<g>
					<path class="st5" d="M209.71,86.16c1.42-0.15,2.65-0.52,3.63-1.08c0.82-0.46,1.47-1.06,1.96-1.77c0.49-0.73,0.7-1.44,0.79-1.91
						c0.4-0.06,0.78-0.13,1.16-0.2c2.13-0.4,3.93-0.96,5.36-1.67c2.52-1.25,3.04-2.55,3.09-2.69c0.05-0.14,0.05-0.29,0-0.42v0
						c0,0,0,0,0,0c0,0,0,0,0,0c-0.06-0.15-0.59-1.45-3.09-2.69c-1.42-0.71-3.23-1.27-5.36-1.67c-0.37-0.07-0.75-0.13-1.14-0.19
						c-0.08-0.46-0.28-1.21-0.8-1.99c-0.48-0.71-1.14-1.31-1.96-1.77c-0.99-0.56-2.21-0.92-3.63-1.08
						c-2.67-0.29-4.82-0.11-6.37,0.54c-1.43,0.6-2.12,1.47-2.51,2.08c-0.07,0.1-0.1,0.22-0.1,0.34c0,0.11,0.03,0.21,0.08,0.31
						c0.12,0.2,0.33,0.32,0.57,0.31c0.01,0,1.19-0.05,2.51,0.06c2.19,0.18,2.95,0.62,3.2,0.87c0.14,0.14,0.16,0.24,0.16,0.32
						c0,0.01,0,0.03,0,0.04c0,0.01,0,0.03,0,0.04v1.37l-3.3-1.55c-0.19-0.09-0.42-0.08-0.6,0.04c-0.18,0.11-0.29,0.31-0.29,0.52
						v8.62c0,0,0,0,0,0c0,0.34,0.28,0.62,0.62,0.62c0.1,0,0.2-0.03,0.29-0.07l3.27-1.54v1.37c0,0.08-0.02,0.19-0.16,0.32
						c-0.26,0.25-1.01,0.69-3.2,0.87c-1.32,0.11-2.5,0.06-2.51,0.06c-0.23-0.01-0.45,0.11-0.57,0.31c-0.05,0.1-0.08,0.2-0.08,0.31
						c0,0.12,0.03,0.23,0.1,0.34c0.39,0.61,1.08,1.48,2.51,2.08C204.9,86.27,207.04,86.45,209.71,86.16z M208.41,71.34
						c-0.09-0.25-0.24-0.48-0.45-0.68c-0.68-0.65-1.98-1.05-3.97-1.21c-0.45-0.04-0.88-0.06-1.26-0.07c0.28-0.23,0.64-0.45,1.1-0.64
						c1.36-0.57,3.3-0.72,5.76-0.45c1.23,0.13,2.28,0.44,3.11,0.9c0.65,0.36,1.17,0.81,1.55,1.36c0.3,0.43,0.47,0.84,0.56,1.17
						C212.87,71.48,210.73,71.36,208.41,71.34z M224.04,76.22c0.17,0.17,0.28,0.32,0.36,0.43c-0.24,0.34-0.87,1.05-2.35,1.79
						c-0.56,0.28-1.18,0.53-1.86,0.76c-0.42-1.42-0.38-2.76-0.27-3.67c0.07-0.6,0.19-1.09,0.28-1.41c0.59,0.2,1.14,0.41,1.63,0.65
						C223.01,75.31,223.68,75.86,224.04,76.22z M204.31,79.98v-6.66l2.94,1.38v3.9L204.31,79.98z M208.5,78.99V74.3v-1.72
						c3.15,0.03,5.94,0.25,8.3,0.68c0.79,0.14,1.52,0.3,2.21,0.49c-0.17,0.6-0.41,1.67-0.41,2.97c0,0.86,0.1,1.83,0.4,2.83
						c-0.62,0.17-1.28,0.31-1.98,0.45c-2.4,0.45-5.27,0.69-8.52,0.72V78.99z M203.82,84.47c-0.46-0.19-0.81-0.41-1.1-0.64
						c0.38-0.01,0.81-0.03,1.26-0.07c1.99-0.16,3.29-0.56,3.97-1.21c0.19-0.18,0.33-0.38,0.42-0.6c2.33-0.02,4.47-0.14,6.4-0.37
						c-0.1,0.31-0.26,0.7-0.53,1.09c-0.38,0.54-0.9,1-1.55,1.36c-0.83,0.46-1.88,0.76-3.11,0.9
						C207.12,85.19,205.18,85.04,203.82,84.47z"/>
				</g>
			</g>
			<g>
				<g>
					<path class="st5" d="M192.35,76.61c0-0.26,0.18-0.46,0.4-0.46h7.85c0.22,0,0.4,0.21,0.4,0.46c0,0.26-0.18,0.46-0.4,0.46h-7.85
						C192.53,77.07,192.35,76.86,192.35,76.61z"/>
				</g>
			</g>
			<g>
				<g>
					<path class="st5" d="M194.11,83.08c0-0.18,0.09-0.35,0.24-0.42l6.1-3.13c0.2-0.1,0.44,0,0.53,0.24c0.09,0.23,0,0.51-0.2,0.61
						l-6.1,3.13c-0.2,0.1-0.44,0-0.53-0.24C194.12,83.2,194.11,83.14,194.11,83.08z"/>
				</g>
			</g>
			<g>
				<g>
					<path class="st5" d="M194.11,70.07c0-0.06,0.01-0.13,0.03-0.19c0.09-0.23,0.32-0.34,0.53-0.24l6.1,3.13
						c0.2,0.1,0.29,0.38,0.2,0.61c-0.09,0.23-0.32,0.34-0.53,0.24l-6.1-3.13C194.19,70.42,194.11,70.25,194.11,70.07z"/>
				</g>
			</g>
		</g>
		<g>
			<g>
				<polygon class="st10" points="234.61,36.61 228.22,51.53 221.83,66.45 234.61,66.45 247.39,66.45 241,51.53 				"/>
			</g>
			<g>
				<polygon class="st2" points="234.61,36.61 241,51.53 247.39,66.45 253.26,56.5 				"/>
			</g>
		</g>
		<g>
			<g>
				<g>
					<g>
						<g>
							<g>
								<path class="st10" d="M217.35,141.85c4.01-1,6.89-4.67,6.89-8.82c0-3.06-1.49-5.85-4.01-7.54c0.46-0.69,0.71-1.5,0.71-2.33
									c0-2.06-1.47-3.79-3.47-4.13c-0.1-3.48-2.97-6.29-6.48-6.29c-3.47,0-6.36,2.81-6.48,6.27c0,0.02,0,0.04,0,0.06v19.56
									c-0.06,0.37-0.09,0.73-0.09,1.1c0,3.66,2.98,6.64,6.64,6.64C213.89,146.37,216.44,144.52,217.35,141.85z"/>
							</g>
						</g>
					</g>
				</g>
				<g>
					<g>
						<path class="st1" d="M218.28,117.7c-1.83,0.46-3.71,1.4-4.25,3.36c-0.29,1.06-0.04,2.13-0.1,3.2
							c-0.03,0.55-0.19,1.06-0.58,1.47c-0.17,0.18-0.81,0.61-0.94,0.54c-0.89-0.45-1.69,0.9-0.79,1.35c0.89,0.45,1.92,0,2.62-0.6
							c0.94-0.81,1.26-1.99,1.25-3.2c-0.01-1.09-0.27-2.26,0.46-3.19c0.65-0.83,1.76-1.18,2.74-1.43
							C219.67,118.96,219.25,117.46,218.28,117.7L218.28,117.7z"/>
					</g>
				</g>
				<g>
					<g>
						<path class="st1" d="M215.14,120.9c-0.62-0.37-1.24-0.79-1.94-1c-0.67-0.2-1.33-0.14-2.01-0.02
							c-1.17,0.21-2.08,0.54-2.86-0.58c-0.57-0.81-1.92-0.04-1.35,0.79c0.81,1.15,1.83,1.74,3.25,1.55c0.63-0.08,1.25-0.3,1.88-0.33
							c0.85-0.04,1.55,0.52,2.25,0.93C215.22,122.75,216,121.41,215.14,120.9L215.14,120.9z"/>
					</g>
				</g>
				<g>
					<g>
						<path class="st1" d="M204.28,138.82c-0.14-0.75-0.18-1.61,0.39-2.19c0.48-0.5,1.21-0.72,1.85-0.94
							c1.59-0.55,3.3-1.11,4.07-2.73c0.43-0.9-0.91-1.69-1.35-0.79c-0.76,1.6-2.78,1.8-4.24,2.44c-0.75,0.33-1.46,0.79-1.89,1.5
							c-0.58,0.95-0.53,2.08-0.33,3.13C202.96,140.22,204.46,139.8,204.28,138.82L204.28,138.82z"/>
					</g>
				</g>
				<g>
					<g>
						<path class="st1" d="M206.8,134.66c0,1.19,0.56,2.14,1.47,2.89c0.81,0.66,1.85,1.16,2.38,2.1c0.49,0.88,1.84,0.09,1.35-0.79
							c-0.5-0.9-1.33-1.47-2.14-2.06c-0.77-0.55-1.49-1.12-1.49-2.14C208.36,133.66,206.8,133.66,206.8,134.66L206.8,134.66z"/>
					</g>
				</g>
				<g>
					<g>
						<path class="st1" d="M219.81,143.1c-0.92-0.71-1.65-1.75-2.24-2.73c-0.52-0.86-0.9-1.7-0.98-2.71
							c-0.13-1.59,0.14-4.12,1.87-4.83c0.92-0.37,0.52-1.88-0.41-1.5c-2.4,0.98-3.16,3.78-3.02,6.16c0.16,2.68,1.9,5.34,4,6.95
							C219.82,145.06,220.6,143.71,219.81,143.1L219.81,143.1z"/>
					</g>
				</g>
				<g>
					<g>
						<path class="st1" d="M202.82,123.1c2.17,1.26,3.69,3.29,4.16,5.77c0.19,0.98,1.69,0.57,1.5-0.41
							c-0.54-2.85-2.39-5.25-4.88-6.7C202.74,121.25,201.95,122.59,202.82,123.1L202.82,123.1z"/>
					</g>
				</g>
			</g>
			<g>
				<g>
					<g>
						<g>
							<g>
								<path class="st10" d="M196.05,146.37c3.66,0,6.64-2.98,6.64-6.64c0-0.36-0.03-0.73-0.09-1.1v-19.56c0-0.02,0-0.04,0-0.06
									c-0.11-3.46-3.01-6.27-6.48-6.27c-3.51,0-6.38,2.8-6.48,6.29c-2,0.35-3.47,2.07-3.47,4.13c0,0.83,0.25,1.65,0.71,2.33
									c-2.52,1.69-4.01,4.48-4.01,7.54c0,4.15,2.89,7.82,6.89,8.82C190.66,144.52,193.22,146.37,196.05,146.37z"/>
							</g>
						</g>
					</g>
				</g>
				<g>
					<g>
						<path class="st1" d="M188.41,119.2c0.96,0.24,2.02,0.58,2.68,1.36c0.79,0.94,0.53,2.13,0.52,3.25
							c-0.01,1.17,0.28,2.32,1.18,3.14c0.71,0.64,1.78,1.12,2.69,0.66c0.9-0.45,0.11-1.79-0.79-1.35c-0.13,0.06-0.77-0.37-0.94-0.54
							c-0.36-0.37-0.52-0.85-0.57-1.36c-0.11-1.11,0.19-2.21-0.11-3.31c-0.54-1.96-2.41-2.91-4.25-3.36
							C187.85,117.46,187.44,118.96,188.41,119.2L188.41,119.2z"/>
					</g>
				</g>
				<g>
					<g>
						<path class="st1" d="M192.75,122.24c0.7-0.41,1.4-0.96,2.25-0.93c0.63,0.02,1.25,0.25,1.88,0.33c1.42,0.19,2.44-0.4,3.25-1.55
							c0.58-0.82-0.77-1.6-1.35-0.79c-0.79,1.12-1.7,0.79-2.86,0.58c-0.68-0.12-1.34-0.18-2.01,0.02c-0.7,0.21-1.32,0.63-1.94,1
							C191.1,121.41,191.89,122.76,192.75,122.24L192.75,122.24z"/>
					</g>
				</g>
				<g>
					<g>
						<path class="st1" d="M204.33,139.23c0.19-1.03,0.24-2.14-0.31-3.08c-0.43-0.74-1.15-1.21-1.92-1.55
							c-1.46-0.64-3.48-0.84-4.24-2.44c-0.43-0.9-1.78-0.11-1.35,0.79c0.78,1.63,2.49,2.19,4.07,2.73c0.62,0.21,1.32,0.43,1.81,0.9
							c0.61,0.58,0.57,1.46,0.43,2.23C202.65,139.8,204.15,140.22,204.33,139.23L204.33,139.23z"/>
					</g>
				</g>
				<g>
					<g>
						<path class="st1" d="M198.75,134.66c0,1.02-0.73,1.59-1.49,2.14c-0.82,0.59-1.64,1.17-2.14,2.06
							c-0.49,0.88,0.86,1.66,1.35,0.79c0.53-0.94,1.57-1.44,2.38-2.1c0.91-0.74,1.47-1.7,1.47-2.89
							C200.31,133.66,198.75,133.66,198.75,134.66L198.75,134.66z"/>
					</g>
				</g>
				<g>
					<g>
						<path class="st1" d="M188.08,144.45c2.1-1.61,3.85-4.27,4.01-6.95c0.14-2.39-0.63-5.19-3.02-6.16
							c-0.93-0.38-1.33,1.13-0.41,1.5c1.73,0.7,1.99,3.24,1.87,4.83c-0.08,0.97-0.42,1.78-0.92,2.61c-0.61,1.01-1.35,2.1-2.3,2.82
							C186.5,143.71,187.28,145.06,188.08,144.45L188.08,144.45z"/>
					</g>
				</g>
				<g>
					<g>
						<path class="st1" d="M203.5,121.75c-2.49,1.45-4.34,3.85-4.88,6.7c-0.19,0.98,1.32,1.4,1.5,0.41
							c0.47-2.48,1.99-4.51,4.16-5.77C205.15,122.59,204.37,121.25,203.5,121.75L203.5,121.75z"/>
					</g>
				</g>
			</g>
		</g>
		<g>
			<circle class="st10" cx="51.94" cy="70.23" r="9.73"/>
		</g>
		<g>
			<circle class="st4" cx="51.94" cy="70.23" r="5.86"/>
		</g>
		<g>
			<path class="st1" d="M51.94,76.62c-3.52,0-6.38-2.86-6.38-6.38c0-3.52,2.86-6.38,6.38-6.38c3.52,0,6.38,2.86,6.38,6.38
				C58.33,73.75,55.46,76.62,51.94,76.62z M51.94,64.89c-2.95,0-5.35,2.4-5.35,5.35c0,2.95,2.4,5.35,5.35,5.35
				c2.95,0,5.35-2.4,5.35-5.35C57.29,67.29,54.89,64.89,51.94,64.89z"/>
		</g>
		<g>
			
				<ellipse transform="matrix(0.9732 -0.2298 0.2298 0.9732 -13.8641 12.787)" class="st1" cx="47.98" cy="65.93" rx="2.79" ry="2.79"/>
		</g>
		<g>
			<path class="st6" d="M8.28,91.12c0,4.27,3.46,7.74,7.74,7.74V83.38C11.74,83.38,8.28,86.84,8.28,91.12z"/>
		</g>
		<g>
			<path class="st2" d="M16.02,83.38v15.48c4.27,0,7.74-3.46,7.74-7.74C23.76,86.84,20.29,83.38,16.02,83.38z"/>
		</g>
		<g>
			<rect x="46.24" y="87.13" class="st2" width="6.5" height="13"/>
		</g>
		<g>
			<rect x="39.74" y="87.13" class="st6" width="6.5" height="13"/>
		</g>
		<g>
			<polygon class="st6" points="22.86,100.24 18.69,107.47 27.04,107.47 27.04,93 			"/>
		</g>
		<g>
			<polygon class="st2" points="27.04,93 27.04,107.47 35.4,107.47 31.22,100.24 			"/>
		</g>
		<g>
			<rect x="33.9" y="113.02" class="st13" width="41.82" height="27.42"/>
		</g>
		<g>
			<rect x="37.53" y="116.77" class="st1" width="34.57" height="19.93"/>
		</g>
		<g>
			<rect x="48.58" y="140.45" class="st3" width="12.47" height="3.52"/>
		</g>
		<g>
			<rect x="44.91" y="143.97" class="st13" width="19.79" height="1.9"/>
		</g>
		<g>
			<path class="st7" d="M73.62,138.35H36v-23.22h37.62V138.35z M36.26,138.09h37.1v-22.7h-37.1V138.09z"/>
		</g>
		<g>
			<polygon class="st10" points="60.54,122.9 54.81,119.59 49.08,122.9 54.81,126.21 			"/>
		</g>
		<g>
			<polygon class="st6" points="49.08,122.9 49.08,129.52 54.81,132.83 54.81,126.21 			"/>
		</g>
		<g>
			<polygon class="st11" points="54.81,126.21 54.81,132.83 60.54,129.52 60.54,122.9 			"/>
		</g>
		<g>
			
				<rect x="161.08" y="137.3" transform="matrix(0.7071 -0.7071 0.7071 0.7071 -50.3093 155.6725)" class="st10" width="3.37" height="2.53"/>
		</g>
		<g>
			<g>
				<path class="st14" d="M174.68,138.18c3.18-3.18,3.18-8.34,0-11.52c-3.18-3.18-8.34-3.18-11.52,0c-3.18,3.18-3.18,8.34,0,11.52
					C166.34,141.36,171.5,141.36,174.68,138.18z M164.84,136.49c-2.25-2.25-2.25-5.9,0-8.15c2.25-2.25,5.9-2.25,8.15,0
					c2.25,2.25,2.25,5.9,0,8.15C170.74,138.74,167.1,138.74,164.84,136.49z"/>
			</g>
		</g>
		<g>
			
				<rect x="159.94" y="138.35" transform="matrix(0.7071 -0.7071 0.7071 0.7071 -52.1754 154.909)" class="st14" width="1.91" height="4.16"/>
		</g>
		<g>
			
				<rect x="151.8" y="143.02" transform="matrix(0.7071 -0.7071 0.7071 0.7071 -56.3403 153.1803)" class="st6" width="9.87" height="3.15"/>
		</g>
		<g>
			<path class="st1" d="M168.92,139.72c-1.95,0-3.79-0.76-5.17-2.14c-1.38-1.38-2.14-3.22-2.14-5.17c0-1.95,0.76-3.79,2.14-5.17
				c2.85-2.85,7.49-2.85,10.34,0c1.38,1.38,2.14,3.22,2.14,5.17c0,1.95-0.76,3.79-2.14,5.17l0,0l0,0
				C172.71,138.96,170.87,139.72,168.92,139.72z M168.92,125.37c-1.81,0-3.61,0.69-4.98,2.06c-1.33,1.33-2.06,3.1-2.06,4.98
				s0.73,3.65,2.06,4.98c1.33,1.33,3.1,2.06,4.98,2.06c1.88,0,3.65-0.73,4.98-2.06l0,0c1.33-1.33,2.06-3.1,2.06-4.98
				s-0.73-3.65-2.06-4.98C172.53,126.06,170.72,125.37,168.92,125.37z"/>
		</g>
		<g>
			<path class="st1" d="M105.96,8.64H65.99c-0.87,0-1.59,0.71-1.59,1.59v5.13c0,0.87,0.71,1.59,1.59,1.59h39.97
				c0.87,0,1.59-0.71,1.59-1.59v-5.13C107.54,9.35,106.83,8.64,105.96,8.64z M66.87,15.99H66.4v0v0h-0.47v-2.34h0.94V15.99z
				 M69.03,15.99h-0.47v0v0H68.1v-2.34h0.94V15.99z M71.2,15.99h-0.47v0v0h-0.47v-3.19h0.47v0v0h0.47V15.99z M73.36,15.99H72.9v0v0
				h-0.47v-2.34h0.94V15.99z M75.53,15.99h-0.47v0v0h-0.47v-2.34h0.94V15.99z M77.69,15.99h-0.47v0v0h-0.47v-3.19h0.47v0v0h0.47
				V15.99z M79.86,15.99h-0.47v0v0h-0.47v-2.34h0.94V15.99z M82.02,15.99h-0.47v0v0h-0.47v-2.34h0.94V15.99z M84.18,15.99h-0.47v0v0
				h-0.47v-3.19h0.47v0v0h0.47V15.99z M86.35,15.99h-0.47v0v0h-0.47v-2.34h0.94V15.99z M88.51,15.99h-0.47v0v0h-0.47v-2.34h0.94
				V15.99z M90.68,15.99h-0.47v0v0h-0.47v-3.19h0.47v0v0h0.47V15.99z M92.84,15.99h-0.47v0v0h-0.47v-2.34h0.94V15.99z M95.01,15.99
				h-0.47v0v0h-0.47v-2.34h0.94V15.99z M97.17,15.99H96.7v0v0h-0.47v-3.19h0.47v0v0h0.47V15.99z M99.34,15.99h-0.47v0v0H98.4v-2.34
				h0.94V15.99z M101.5,15.99h-0.47v0v0h-0.47v-2.34h0.94V15.99z M103.66,15.99h-0.47v0v0h-0.47v-3.19h0.47v0v0h0.47V15.99z
				 M105.83,15.99h-0.47v0v0h-0.47v-2.34h0.94V15.99z"/>
			<path class="st15" d="M105.96,7.6H65.99c-1.45,0-2.63,1.18-2.63,2.63v5.13c0,1.45,1.18,2.63,2.63,2.63h39.97
				c1.45,0,2.63-1.18,2.63-2.63v-5.13C108.58,8.78,107.4,7.6,105.96,7.6z M108.06,15.36c0,1.16-0.94,2.11-2.11,2.11H65.99
				c-1.16,0-2.11-0.94-2.11-2.11v-5.13c0-1.16,0.94-2.11,2.11-2.11h39.97c1.16,0,2.11,0.94,2.11,2.11V15.36z"/>
			<path class="st15" d="M105.96,8.12H65.99c-1.16,0-2.11,0.94-2.11,2.11v5.13c0,1.16,0.94,2.11,2.11,2.11h39.97
				c1.16,0,2.11-0.94,2.11-2.11v-5.13C108.06,9.06,107.12,8.12,105.96,8.12z M107.54,15.36c0,0.87-0.71,1.59-1.59,1.59H65.99
				c-0.87,0-1.59-0.71-1.59-1.59v-5.13c0-0.87,0.71-1.59,1.59-1.59h39.97c0.87,0,1.59,0.71,1.59,1.59V15.36z"/>
			<polygon class="st15" points="65.93,15.99 66.4,15.99 66.4,13.64 66.4,15.99 66.87,15.99 66.87,13.64 65.93,13.64 			"/>
			<polygon class="st15" points="68.1,15.99 68.57,15.99 68.57,13.64 68.57,15.99 69.03,15.99 69.03,13.64 68.1,13.64 			"/>
			<rect x="70.73" y="12.79" class="st15" width="0.47" height="3.19"/>
			<rect x="70.26" y="12.79" class="st15" width="0.47" height="3.19"/>
			<polygon class="st15" points="72.43,15.99 72.9,15.99 72.9,13.64 72.9,15.99 73.36,15.99 73.36,13.64 72.43,13.64 			"/>
			<polygon class="st15" points="74.59,15.99 75.06,15.99 75.06,13.64 75.06,15.99 75.53,15.99 75.53,13.64 74.59,13.64 			"/>
			<rect x="77.22" y="12.79" class="st15" width="0.47" height="3.19"/>
			<rect x="76.76" y="12.79" class="st15" width="0.47" height="3.19"/>
			<polygon class="st15" points="78.92,15.99 79.39,15.99 79.39,13.64 79.39,15.99 79.86,15.99 79.86,13.64 78.92,13.64 			"/>
			<polygon class="st15" points="81.09,15.99 81.55,15.99 81.55,13.64 81.55,15.99 82.02,15.99 82.02,13.64 81.09,13.64 			"/>
			<rect x="83.25" y="12.79" class="st15" width="0.47" height="3.19"/>
			<rect x="83.72" y="12.79" class="st15" width="0.47" height="3.19"/>
			<polygon class="st15" points="85.41,15.99 85.88,15.99 85.88,13.64 85.88,15.99 86.35,15.99 86.35,13.64 85.41,13.64 			"/>
			<polygon class="st15" points="87.58,15.99 88.05,15.99 88.05,13.64 88.05,15.99 88.51,15.99 88.51,13.64 87.58,13.64 			"/>
			<rect x="90.21" y="12.79" class="st15" width="0.47" height="3.19"/>
			<rect x="89.74" y="12.79" class="st15" width="0.47" height="3.19"/>
			<polygon class="st15" points="91.91,15.99 92.38,15.99 92.38,13.64 92.38,15.99 92.84,15.99 92.84,13.64 91.91,13.64 			"/>
			<polygon class="st15" points="94.07,15.99 94.54,15.99 94.54,13.64 94.54,15.99 95.01,15.99 95.01,13.64 94.07,13.64 			"/>
			<rect x="96.7" y="12.79" class="st15" width="0.47" height="3.19"/>
			<rect x="96.24" y="12.79" class="st15" width="0.47" height="3.19"/>
			<polygon class="st15" points="98.4,15.99 98.87,15.99 98.87,13.64 98.87,15.99 99.34,15.99 99.34,13.64 98.4,13.64 			"/>
			<polygon class="st15" points="100.57,15.99 101.03,15.99 101.03,13.64 101.03,15.99 101.5,15.99 101.5,13.64 100.57,13.64 			"/>
			<rect x="103.2" y="12.79" class="st15" width="0.47" height="3.19"/>
			<rect x="102.73" y="12.79" class="st15" width="0.47" height="3.19"/>
			<polygon class="st15" points="104.89,15.99 105.36,15.99 105.36,13.64 105.36,15.99 105.83,15.99 105.83,13.64 104.89,13.64 			
				"/>
		</g>
		<g>
			<g>
				<path class="st15" d="M101.92,134.73c-4.4,0.6-4.18-7.56-9.96-7.91c-6-0.37-9.67,5.04-7.67,10.39c2,5.34,16.21,14.47,23.24,6.83
					c3-3.26,5.72-8.72,1.59-12.31C106.37,129.33,106,134.17,101.92,134.73z"/>
			</g>
			<g>
				<path class="st1" d="M91.36,135.39c0,1.21-0.98,2.2-2.2,2.2l0,0c-1.21,0-2.2-0.98-2.2-2.2l0,0c0-1.21,0.98-2.2,2.2-2.2l0,0
					C90.37,133.2,91.36,134.18,91.36,135.39L91.36,135.39z"/>
			</g>
			<g>
				<path class="st1" d="M96.29,140.18c0,1.21-0.98,2.2-2.2,2.2l0,0c-1.21,0-2.2-0.98-2.2-2.2l0,0c0-1.21,0.98-2.2,2.2-2.2l0,0
					C95.3,137.98,96.29,138.97,96.29,140.18L96.29,140.18z"/>
			</g>
			<g>
				<path class="st1" d="M103.79,141.97c0,1.21-0.98,2.2-2.2,2.2l0,0c-1.21,0-2.2-0.98-2.2-2.2l0,0c0-1.21,0.98-2.2,2.2-2.2l0,0
					C102.81,139.77,103.79,140.76,103.79,141.97L103.79,141.97z"/>
			</g>
			<g>
				<path class="st1" d="M108.44,138.29c0,1.05-0.85,1.9-1.9,1.9l0,0c-1.05,0-1.9-0.85-1.9-1.9l0,0c0-1.05,0.85-1.9,1.9-1.9l0,0
					C107.59,136.39,108.44,137.24,108.44,138.29L108.44,138.29z"/>
			</g>
		</g>
		<g>
			<g>
				<path class="st5" d="M149.84,5.07l9.03,24.14h-5.51l-1.83-5.38h-9.03l-1.89,5.38h-5.34l9.13-24.14H149.84z M150.14,19.88
					l-3.04-8.86h-0.07l-3.14,8.86H150.14z"/>
			</g>
			<g>
				<path class="st16" d="M160.25,17.11c0.07-1.13,0.35-2.06,0.85-2.81c0.5-0.74,1.13-1.34,1.89-1.79c0.77-0.45,1.63-0.77,2.59-0.96
					c0.96-0.19,1.92-0.29,2.89-0.29c0.88,0,1.77,0.06,2.67,0.19c0.9,0.12,1.72,0.37,2.47,0.73c0.74,0.36,1.35,0.86,1.83,1.5
					c0.47,0.64,0.71,1.49,0.71,2.55v9.1c0,0.79,0.04,1.54,0.14,2.27c0.09,0.72,0.25,1.26,0.47,1.62h-4.87
					c-0.09-0.27-0.16-0.55-0.22-0.83c-0.06-0.28-0.1-0.57-0.12-0.86c-0.77,0.79-1.67,1.34-2.7,1.66c-1.04,0.32-2.1,0.47-3.18,0.47
					c-0.83,0-1.61-0.1-2.33-0.3c-0.72-0.2-1.35-0.52-1.89-0.95c-0.54-0.43-0.96-0.97-1.27-1.62c-0.3-0.65-0.46-1.43-0.46-2.33
					c0-0.99,0.17-1.81,0.52-2.45c0.35-0.64,0.8-1.15,1.35-1.54c0.55-0.38,1.18-0.67,1.89-0.86c0.71-0.19,1.43-0.34,2.15-0.46
					c0.72-0.11,1.43-0.2,2.13-0.27c0.7-0.07,1.32-0.17,1.86-0.3c0.54-0.14,0.97-0.33,1.28-0.59c0.32-0.26,0.46-0.64,0.44-1.13
					c0-0.52-0.08-0.93-0.25-1.23c-0.17-0.3-0.39-0.54-0.68-0.71c-0.28-0.17-0.61-0.28-0.98-0.34c-0.37-0.06-0.77-0.08-1.2-0.08
					c-0.95,0-1.69,0.2-2.23,0.61c-0.54,0.41-0.86,1.08-0.95,2.03H160.25z M171.34,20.66c-0.2,0.18-0.46,0.32-0.76,0.42
					c-0.3,0.1-0.63,0.19-0.98,0.25c-0.35,0.07-0.72,0.12-1.1,0.17c-0.38,0.05-0.77,0.1-1.15,0.17c-0.36,0.07-0.72,0.16-1.07,0.27
					c-0.35,0.11-0.65,0.27-0.91,0.46c-0.26,0.19-0.47,0.43-0.63,0.73c-0.16,0.29-0.24,0.67-0.24,1.12c0,0.43,0.08,0.79,0.24,1.08
					c0.16,0.29,0.37,0.52,0.64,0.69s0.59,0.29,0.95,0.36c0.36,0.07,0.73,0.1,1.12,0.1c0.95,0,1.68-0.16,2.2-0.47
					c0.52-0.32,0.9-0.69,1.15-1.13c0.25-0.44,0.4-0.88,0.46-1.34c0.06-0.45,0.08-0.81,0.08-1.08V20.66z"/>
			</g>
		</g>
		<g>
			<g>
				
					<ellipse transform="matrix(0.3162 -0.9487 0.9487 0.3162 58.0559 302.6476)" class="st6" cx="238.98" cy="111.05" rx="8.2" ry="8.2"/>
			</g>
			<g>
				<rect x="237.68" y="109.3" class="st1" width="2.61" height="7.4"/>
			</g>
			<g>
				<path class="st1" d="M240.47,106.61c0,0.82-0.67,1.49-1.49,1.49c-0.82,0-1.49-0.67-1.49-1.49c0-0.82,0.67-1.49,1.49-1.49
					C239.8,105.12,240.47,105.79,240.47,106.61z"/>
			</g>
		</g>
		<path class="st7" d="M182.87,107.93c-2.66,0-4.81,2.15-4.81,4.81c0,2.66,2.15,4.81,4.81,4.81c2.66,0,4.81-2.15,4.81-4.81
			C187.68,110.09,185.52,107.93,182.87,107.93z"/>
		<g class="st8">
			<g>
				<defs>
					<rect id="SVGID_5_" x="178.05" y="107.93" width="4.81" height="9.62"/>
				</defs>
				<clipPath id="SVGID_6_">
					<use xlink:href="#SVGID_5_"  style="overflow:visible;"/>
				</clipPath>
				<g class="st17">
					<path class="st7" d="M182.87,117.55c-2.66,0-4.81-2.15-4.81-4.81c0-2.66,2.15-4.81,4.81-4.81V117.55z"/>
				</g>
			</g>
		</g>
		<path class="st7" d="M189.71,47.36c-1.59,0-2.87,1.29-2.87,2.87c0,1.59,1.29,2.87,2.87,2.87c1.59,0,2.87-1.29,2.87-2.87
			C192.59,48.65,191.3,47.36,189.71,47.36z"/>
		<g class="st8">
			<g>
				<defs>
					<rect id="SVGID_7_" x="186.84" y="47.36" width="2.88" height="5.75"/>
				</defs>
				<clipPath id="SVGID_8_">
					<use xlink:href="#SVGID_7_"  style="overflow:visible;"/>
				</clipPath>
				<g class="st18">
					<path class="st7" d="M189.71,53.11c-1.59,0-2.87-1.29-2.87-2.87c0-1.59,1.29-2.87,2.87-2.87V53.11z"/>
				</g>
			</g>
		</g>
		<path class="st7" d="M16.94,70.23c-1.08,0-1.96,0.88-1.96,1.96c0,1.09,0.88,1.96,1.96,1.96c1.08,0,1.96-0.88,1.96-1.96
			C18.91,71.11,18.03,70.23,16.94,70.23z"/>
		<g class="st8">
			<g>
				<defs>
					<rect id="SVGID_9_" x="14.98" y="70.23" width="1.96" height="3.93"/>
				</defs>
				<clipPath id="SVGID_10_">
					<use xlink:href="#SVGID_9_"  style="overflow:visible;"/>
				</clipPath>
				<g class="st19">
					<path class="st7" d="M16.94,74.16c-1.08,0-1.96-0.88-1.96-1.96c0-1.08,0.88-1.96,1.96-1.96V74.16z"/>
				</g>
			</g>
		</g>
		<path class="st7" d="M68.57,46.64c-1.09,0-1.96,0.88-1.96,1.96c0,1.09,0.88,1.96,1.96,1.96c1.08,0,1.96-0.88,1.96-1.96
			C70.53,47.52,69.65,46.64,68.57,46.64z"/>
		<g class="st8">
			<g>
				<defs>
					<rect id="SVGID_11_" x="66.6" y="46.64" width="1.96" height="3.93"/>
				</defs>
				<clipPath id="SVGID_12_">
					<use xlink:href="#SVGID_11_"  style="overflow:visible;"/>
				</clipPath>
				<g class="st20">
					<path class="st7" d="M68.57,50.57c-1.09,0-1.96-0.88-1.96-1.96c0-1.08,0.88-1.96,1.96-1.96V50.57z"/>
				</g>
			</g>
		</g>
		<path class="st7" d="M63.89,102.23c-1.32,0-2.38,1.07-2.38,2.38c0,1.32,1.07,2.38,2.38,2.38c1.32,0,2.38-1.07,2.38-2.38
			C66.27,103.3,65.2,102.23,63.89,102.23z"/>
		<g class="st8">
			<g>
				<defs>
					<rect id="SVGID_13_" x="61.5" y="102.23" width="2.39" height="4.77"/>
				</defs>
				<clipPath id="SVGID_14_">
					<use xlink:href="#SVGID_13_"  style="overflow:visible;"/>
				</clipPath>
				<g class="st21">
					<path class="st7" d="M63.89,107c-1.32,0-2.38-1.07-2.38-2.38c0-1.32,1.07-2.38,2.38-2.38V107z"/>
				</g>
			</g>
		</g>
		<path class="st7" d="M15.61,12.2c-2.39,0-4.33,1.94-4.33,4.33c0,2.39,1.94,4.33,4.33,4.33c2.39,0,4.33-1.94,4.33-4.33
			C19.94,14.14,18,12.2,15.61,12.2z"/>
		<g class="st8">
			<g>
				<defs>
					<rect id="SVGID_15_" x="11.29" y="12.2" width="4.33" height="8.65"/>
				</defs>
				<clipPath id="SVGID_16_">
					<use xlink:href="#SVGID_15_"  style="overflow:visible;"/>
				</clipPath>
				<g class="st22">
					<path class="st7" d="M15.61,20.85c-2.39,0-4.33-1.94-4.33-4.33c0-2.39,1.94-4.33,4.33-4.33V20.85z"/>
				</g>
			</g>
		</g>
		<g>
			<path class="st3" d="M185.34,100.2c-0.63,0-1.14,0.51-1.14,1.14c0,0.63,0.51,1.14,1.14,1.14c0.63,0,1.14-0.51,1.14-1.14
				C186.47,100.71,185.96,100.2,185.34,100.2z M185.34,102.16c-0.45,0-0.82-0.37-0.82-0.82c0-0.45,0.37-0.82,0.82-0.82
				c0.45,0,0.82,0.37,0.82,0.82C186.16,101.79,185.79,102.16,185.34,102.16z"/>
		</g>
		<g>
			<path class="st10" d="M189.38,96.41c-0.54,0-0.98,0.44-0.98,0.98c0,0.54,0.44,0.98,0.98,0.98c0.54,0,0.98-0.44,0.98-0.98
				C190.36,96.85,189.93,96.41,189.38,96.41z"/>
		</g>
		<g>
			<path class="st13" d="M195.04,96.41c-0.54,0-0.98,0.44-0.98,0.98c0,0.54,0.44,0.98,0.98,0.98c0.54,0,0.98-0.44,0.98-0.98
				C196.02,96.85,195.58,96.41,195.04,96.41z"/>
		</g>
		<g>
			<path class="st3" d="M199.03,100.23c-0.63,0-1.14,0.51-1.14,1.14c0,0.63,0.51,1.14,1.14,1.14c0.63,0,1.14-0.51,1.14-1.14
				C200.16,100.74,199.65,100.23,199.03,100.23z M199.03,102.19c-0.45,0-0.82-0.37-0.82-0.82c0-0.45,0.37-0.82,0.82-0.82
				c0.45,0,0.82,0.37,0.82,0.82C199.85,101.82,199.48,102.19,199.03,102.19z"/>
		</g>
		<g>
			<path class="st6" d="M203.67,100.38c-0.54,0-0.98,0.44-0.98,0.98c0,0.54,0.44,0.98,0.98,0.98c0.54,0,0.98-0.44,0.98-0.98
				C204.65,100.82,204.21,100.38,203.67,100.38z"/>
		</g>
		<g>
			<path class="st13" d="M206.82,103.64c-0.54,0-0.98,0.44-0.98,0.98c0,0.54,0.44,0.98,0.98,0.98c0.54,0,0.98-0.44,0.98-0.98
				C207.8,104.08,207.36,103.64,206.82,103.64z"/>
		</g>
		<g>
			<path class="st13" d="M211.39,103.64c-0.54,0-0.98,0.44-0.98,0.98c0,0.54,0.44,0.98,0.98,0.98c0.54,0,0.98-0.44,0.98-0.98
				C212.37,104.08,211.93,103.64,211.39,103.64z"/>
		</g>
		<g>
			<path class="st13" d="M214.69,100.36c-0.54,0-0.98,0.44-0.98,0.98c0,0.54,0.44,0.98,0.98,0.98s0.98-0.44,0.98-0.98
				C215.67,100.8,215.23,100.36,214.69,100.36z"/>
		</g>
		<g>
			<path class="st13" d="M176.23,100.36c-0.54,0-0.98,0.44-0.98,0.98c0,0.54,0.44,0.98,0.98,0.98c0.54,0,0.98-0.44,0.98-0.98
				C177.21,100.8,176.77,100.36,176.23,100.36z"/>
		</g>
		<g>
			<path class="st10" d="M221.51,100.36c-0.54,0-0.98,0.44-0.98,0.98c0,0.54,0.44,0.98,0.98,0.98c0.54,0,0.98-0.44,0.98-0.98
				C222.49,100.8,222.05,100.36,221.51,100.36z"/>
		</g>
		<g>
			<path class="st3" d="M245.58,91.9c-0.63,0-1.14,0.51-1.14,1.14s0.51,1.14,1.14,1.14c0.63,0,1.14-0.51,1.14-1.14
				S246.21,91.9,245.58,91.9z M245.58,93.86c-0.45,0-0.82-0.37-0.82-0.82c0-0.45,0.37-0.82,0.82-0.82c0.45,0,0.82,0.37,0.82,0.82
				C246.41,93.49,246.04,93.86,245.58,93.86z"/>
		</g>
		<g>
			<path class="st13" d="M241.54,96c-0.54,0-0.98,0.44-0.98,0.98c0,0.54,0.44,0.98,0.98,0.98c0.54,0,0.98-0.44,0.98-0.98
				C242.52,96.44,242.08,96,241.54,96z"/>
		</g>
		<g>
			<path class="st6" d="M235.89,96c-0.54,0-0.98,0.44-0.98,0.98c0,0.54,0.44,0.98,0.98,0.98c0.54,0,0.98-0.44,0.98-0.98
				C236.87,96.44,236.43,96,235.89,96z"/>
		</g>
		<g>
			<path class="st3" d="M231.89,91.88c-0.63,0-1.14,0.51-1.14,1.14c0,0.63,0.51,1.14,1.14,1.14c0.63,0,1.14-0.51,1.14-1.14
				C233.03,92.39,232.52,91.88,231.89,91.88z M231.89,93.84c-0.45,0-0.82-0.37-0.82-0.82c0-0.45,0.37-0.82,0.82-0.82
				c0.45,0,0.82,0.37,0.82,0.82C232.72,93.47,232.35,93.84,231.89,93.84z"/>
		</g>
		<g>
			<path class="st13" d="M227.25,92.04c-0.54,0-0.98,0.44-0.98,0.98c0,0.54,0.44,0.98,0.98,0.98c0.54,0,0.98-0.44,0.98-0.98
				C228.24,92.47,227.8,92.04,227.25,92.04z"/>
		</g>
		<g>
			<path class="st13" d="M224.1,90.74c0.54,0,0.98-0.44,0.98-0.98c0-0.54-0.44-0.98-0.98-0.98c-0.54,0-0.98,0.44-0.98,0.98
				C223.12,90.3,223.56,90.74,224.1,90.74z"/>
		</g>
		<g>
			<path class="st6" d="M219.53,88.78c-0.54,0-0.98,0.44-0.98,0.98c0,0.54,0.44,0.98,0.98,0.98c0.54,0,0.98-0.44,0.98-0.98
				C220.51,89.22,220.07,88.78,219.53,88.78z"/>
		</g>
		<g>
			<path class="st13" d="M216.23,92.06c-0.54,0-0.98,0.44-0.98,0.98c0,0.54,0.44,0.98,0.98,0.98c0.54,0,0.98-0.44,0.98-0.98
				C217.21,92.5,216.77,92.06,216.23,92.06z"/>
		</g>
		<g>
			<path class="st13" d="M252.65,92.06c-0.54,0-0.98,0.44-0.98,0.98c0,0.54,0.44,0.98,0.98,0.98c0.54,0,0.98-0.44,0.98-0.98
				C253.63,92.5,253.19,92.06,252.65,92.06z"/>
		</g>
		<g>
			<path class="st3" d="M209.41,91.9c-0.63,0-1.14,0.51-1.14,1.14s0.51,1.14,1.14,1.14c0.63,0,1.14-0.51,1.14-1.14
				S210.04,91.9,209.41,91.9z M209.41,93.86c-0.45,0-0.82-0.37-0.82-0.82c0-0.45,0.37-0.82,0.82-0.82c0.45,0,0.82,0.37,0.82,0.82
				C210.24,93.49,209.87,93.86,209.41,93.86z"/>
		</g>
		<g>
			<path class="st6" d="M180.3,100.36c-0.54,0-0.98,0.44-0.98,0.98c0,0.54,0.44,0.98,0.98,0.98c0.54,0,0.98-0.44,0.98-0.98
				C181.28,100.8,180.84,100.36,180.3,100.36z"/>
		</g>
		<g>
			<path class="st13" d="M189.38,93.22c0.54,0,0.98-0.44,0.98-0.98c0-0.54-0.44-0.98-0.98-0.98c-0.54,0-0.98,0.44-0.98,0.98
				C188.4,92.78,188.83,93.22,189.38,93.22z"/>
		</g>
		<g>
			<path class="st13" d="M199.9,91.37c-0.54,0-0.98,0.44-0.98,0.98c0,0.54,0.44,0.98,0.98,0.98c0.54,0,0.98-0.44,0.98-0.98
				C200.88,91.81,200.44,91.37,199.9,91.37z"/>
		</g>
		<g>
			<path class="st13" d="M203.67,95.43c-0.54,0-0.98,0.44-0.98,0.98c0,0.54,0.44,0.98,0.98,0.98c0.54,0,0.98-0.44,0.98-0.98
				C204.65,95.87,204.21,95.43,203.67,95.43z"/>
		</g>
		<g>
			<path class="st3" d="M224.2,95.27c-0.63,0-1.14,0.51-1.14,1.14c0,0.63,0.51,1.14,1.14,1.14c0.63,0,1.14-0.51,1.14-1.14
				C225.33,95.78,224.82,95.27,224.2,95.27z M224.2,97.23c-0.45,0-0.82-0.37-0.82-0.82c0-0.45,0.37-0.82,0.82-0.82
				s0.82,0.37,0.82,0.82C225.02,96.86,224.65,97.23,224.2,97.23z"/>
		</g>
		<g>
			<path class="st13" d="M229.24,98.73c-0.54,0-0.98,0.44-0.98,0.98c0,0.54,0.44,0.98,0.98,0.98c0.54,0,0.98-0.44,0.98-0.98
				C230.22,99.17,229.79,98.73,229.24,98.73z"/>
		</g>
		<g>
			<path class="st10" d="M180.27,93.33c0.54,0,0.98-0.44,0.98-0.98c0-0.54-0.44-0.98-0.98-0.98c-0.54,0-0.98,0.44-0.98,0.98
				C179.29,92.89,179.73,93.33,180.27,93.33z"/>
		</g>
		<path class="st23" d="M37.73,45.91c-1.63,2.18-4.23,3.59-7.16,3.59h0C33.5,49.5,36.1,48.09,37.73,45.91z"/>
		<path class="st23" d="M39.4,39.2c-0.66-4.29-4.36-7.58-8.84-7.58v0C35.04,31.62,38.75,34.91,39.4,39.2z"/>
		<path class="st10" d="M30.56,49.51v-2.96c-3.31,0-5.99-2.68-5.99-5.99c0-3.31,2.68-5.99,5.99-5.99v-2.96v0
			c-4.94,0-8.95,4-8.95,8.95C21.62,45.5,25.62,49.51,30.56,49.51C30.56,49.51,30.57,49.51,30.56,49.51L30.56,49.51L30.56,49.51z"/>
		<path class="st5" d="M39.51,40.56c0,1.7-0.47,3.29-1.3,4.64C39.03,43.85,39.51,42.26,39.51,40.56z"/>
		<path class="st5" d="M30.56,31.62v2.96c3.31,0,5.99,2.68,5.99,5.99c0,3.31-2.68,5.99-5.99,5.99v2.96h0.01
			c2.93,0,5.53-1.41,7.16-3.59c0.17-0.23,0.33-0.47,0.48-0.71c0.82-1.35,1.3-2.94,1.3-4.64c0-0.46-0.04-0.92-0.1-1.36
			C38.75,34.91,35.04,31.62,30.56,31.62z"/>
		<path class="st10" d="M49.81,41.99c0-1.02,0.83-1.85,1.85-1.85v-1.8c-2.01,0-3.65,1.63-3.65,3.65c0,2.01,1.63,3.65,3.65,3.65v-1.8
			C50.64,43.84,49.81,43.01,49.81,41.99z"/>
		<path class="st10" d="M51.66,45.64v-1.21c1.35,0,2.44-1.09,2.44-2.44c0-1.35-1.09-2.44-2.44-2.44v-1.21c0,0,0,0,0,0h0v1.8l0,0
			c1.02,0,1.85,0.83,1.85,1.85c0,1.02-0.83,1.85-1.85,1.85l0,0L51.66,45.64L51.66,45.64C51.66,45.64,51.66,45.64,51.66,45.64z"/>
		<path class="st23" d="M54.94,40.41c0.03,0.07,0.07,0.15,0.1,0.22C55.01,40.56,54.98,40.48,54.94,40.41z"/>
		<path class="st23" d="M54.8,43.84c0.11-0.19,0.21-0.39,0.28-0.6C55.01,43.45,54.91,43.65,54.8,43.84z"/>
		<path class="st5" d="M55.08,43.25c0.04-0.11,0.08-0.23,0.11-0.34C55.16,43.02,55.12,43.13,55.08,43.25z"/>
		<path class="st5" d="M54.8,43.84c-0.63,1.07-1.8,1.8-3.14,1.8v0C53,45.64,54.16,44.92,54.8,43.84z"/>
		<path class="st5" d="M54.94,40.41c-0.59-1.22-1.84-2.07-3.29-2.07v0C53.11,38.35,54.36,39.19,54.94,40.41z"/>
		<path class="st5" d="M55.04,40.63c0.08,0.2,0.15,0.41,0.19,0.63C55.19,41.04,55.12,40.83,55.04,40.63z"/>
		<path class="st5" d="M55.23,41.26c0.02,0.12,0.04,0.24,0.06,0.36C55.27,41.5,55.25,41.38,55.23,41.26z"/>
		<path class="st5" d="M55.23,41.26c-0.04-0.22-0.11-0.43-0.19-0.63c-0.03-0.07-0.06-0.15-0.1-0.22c-0.59-1.22-1.84-2.07-3.29-2.07
			v1.21c1.35,0,2.44,1.09,2.44,2.44c0,1.35-1.09,2.44-2.44,2.44v1.21c1.34,0,2.51-0.72,3.14-1.8c0.11-0.19,0.21-0.39,0.28-0.6
			c0.04-0.11,0.08-0.23,0.11-0.34c0.07-0.29,0.11-0.6,0.11-0.91c0-0.13-0.01-0.25-0.02-0.37C55.27,41.5,55.25,41.38,55.23,41.26z"/>
		<path class="st6" d="M36.28,26.51c1.7,0,3.08-1.38,3.08-3.08c0-1.7-1.38-3.08-3.08-3.08c-1.7,0-3.08,1.38-3.08,3.08
			C33.2,25.13,34.58,26.51,36.28,26.51z"/>
		<path class="st13" d="M23.59,54.19c-2.21,0-4,1.79-4,4c0,2.21,1.79,4,4,4c2.21,0,4-1.79,4-4C27.59,55.98,25.8,54.19,23.59,54.19z"
			/>
		<circle class="st13" cx="18.68" cy="27.4" r="1.66"/>
		<path class="st13" d="M40.85,29.85c-0.92,0-1.66,0.74-1.66,1.66c0,0.04,0,0.07,0.01,0.11h0.31v0.86c0.3,0.42,0.79,0.69,1.35,0.69
			c0.92,0,1.66-0.74,1.66-1.66C42.51,30.6,41.77,29.85,40.85,29.85z"/>
		<path class="st13" d="M39.2,31.62c0.02,0.32,0.13,0.62,0.31,0.86v-0.86H39.2z"/>
		<path class="st10" d="M9.4,40.11c-1.25,0-2.26,1.01-2.26,2.26c0,1.25,1.01,2.26,2.26,2.26c1.25,0,2.26-1.01,2.26-2.26
			C11.66,41.12,10.65,40.11,9.4,40.11z"/>
		<path class="st3" d="M133.37,136.9c-0.06,0.04-0.13,0.07-0.2,0.09l0.01,0.02L133.37,136.9z"/>
		
			<rect x="124.96" y="142.37" transform="matrix(0.7174 -0.6967 0.6967 0.7174 -63.9033 127.7283)" class="st3" width="1.04" height="0.52"/>
		
			<rect x="133.7" y="137.24" transform="matrix(0.8493 -0.528 0.528 0.8493 -52.5386 91.4918)" class="st3" width="0.52" height="1.04"/>
		
			<rect x="135.35" y="139.88" transform="matrix(0.8493 -0.528 0.528 0.8493 -53.6881 92.7599)" class="st3" width="0.52" height="1.04"/>
		
			<rect x="120.49" y="146.71" transform="matrix(0.7174 -0.6966 0.6966 0.7174 -68.1918 125.8283)" class="st3" width="1.04" height="0.52"/>
		
			<rect x="134.52" y="138.56" transform="matrix(0.8493 -0.528 0.528 0.8493 -53.1127 92.1231)" class="st3" width="0.52" height="1.04"/>
		
			<rect x="130.55" y="136.94" transform="matrix(0.7174 -0.6966 0.6966 0.7174 -58.5408 130.0814)" class="st3" width="1.04" height="0.52"/>
		
			<rect x="136.17" y="141.21" transform="matrix(0.8493 -0.528 0.528 0.8493 -54.2621 93.3911)" class="st3" width="0.52" height="1.04"/>
		
			<rect x="129.43" y="138.03" transform="matrix(0.7174 -0.6967 0.6967 0.7174 -59.6135 129.6168)" class="st3" width="1.04" height="0.52"/>
		
			<rect x="126.08" y="141.28" transform="matrix(0.7174 -0.6967 0.6967 0.7174 -62.8308 128.2004)" class="st3" width="1.04" height="0.52"/>
		
			<rect x="127.2" y="140.2" transform="matrix(0.7174 -0.6966 0.6966 0.7174 -61.7579 128.6649)" class="st3" width="1.04" height="0.52"/>
		<path class="st3" d="M133.63,136.74l-0.01-0.02c-0.07,0.06-0.14,0.12-0.22,0.16L133.63,136.74z"/>
		
			<rect x="136.99" y="142.53" transform="matrix(0.8492 -0.5281 0.5281 0.8492 -54.8424 94.0471)" class="st3" width="0.52" height="1.04"/>
		
			<rect x="141.17" y="142.4" transform="matrix(0.8162 -0.5777 0.5777 0.8162 -56.3768 108.0719)" class="st3" width="1.04" height="0.52"/>
		
			<rect x="142.44" y="141.5" transform="matrix(0.8163 -0.5777 0.5777 0.8163 -55.622 108.6368)" class="st3" width="1.04" height="0.52"/>
		
			<rect x="143.72" y="140.59" transform="matrix(0.8162 -0.5777 0.5777 0.8162 -54.8688 109.2108)" class="st3" width="1.04" height="0.52"/>
		<path class="st3" d="M144.93,140.04l0.3,0.42l0.79-0.56c-0.12-0.12-0.23-0.27-0.3-0.43L144.93,140.04z"/>
		
			<rect x="122.72" y="144.54" transform="matrix(0.7174 -0.6967 0.6967 0.7174 -66.0481 126.784)" class="st3" width="1.04" height="0.52"/>
		
			<rect x="128.32" y="139.11" transform="matrix(0.7174 -0.6967 0.6967 0.7174 -60.6857 129.1409)" class="st3" width="1.04" height="0.52"/>
		
			<rect x="139.9" y="143.3" transform="matrix(0.8162 -0.5777 0.5777 0.8162 -57.1307 107.5024)" class="st3" width="1.04" height="0.52"/>
		
			<rect x="123.84" y="143.45" transform="matrix(0.7174 -0.6967 0.6967 0.7174 -64.9754 127.2523)" class="st3" width="1.04" height="0.52"/>
		
			<rect x="121.61" y="145.63" transform="matrix(0.7174 -0.6967 0.6967 0.7174 -67.1206 126.3118)" class="st3" width="1.04" height="0.52"/>
		
			<rect x="119.37" y="147.8" transform="matrix(0.7174 -0.6967 0.6967 0.7174 -69.2655 125.3676)" class="st10" width="1.04" height="0.52"/>
		<path class="st6" d="M133.08,135.85l0.54,0.86c0.26-0.24,0.44-0.58,0.46-0.96c0.05-0.79-0.55-1.47-1.34-1.52
			c-0.79-0.05-1.47,0.55-1.52,1.34c-0.05,0.79,0.55,1.47,1.34,1.52c0.22,0.01,0.42-0.02,0.61-0.1l-0.54-0.86L133.08,135.85z
			 M132,136.66l-0.36-0.37l0.75-0.72l0.36,0.37L132,136.66z"/>
		<path class="st6" d="M133.4,136.88l-0.03,0.02C133.38,136.89,133.39,136.89,133.4,136.88z"/>
		
			<rect x="131.67" y="135.85" transform="matrix(0.7174 -0.6966 0.6966 0.7174 -57.4684 130.5537)" class="st6" width="1.04" height="0.52"/>
		<path class="st6" d="M133.4,136.88c0.08-0.05,0.15-0.1,0.22-0.16l-0.54-0.86l-0.44,0.27l0.54,0.86c0.07-0.03,0.13-0.06,0.2-0.09
			L133.4,136.88z"/>
		
			<rect x="137.81" y="143.85" transform="matrix(0.8492 -0.5281 0.5281 0.8492 -55.4176 94.6827)" class="st10" width="0.52" height="1.04"/>
		
			<rect x="138.63" y="144.2" transform="matrix(0.8163 -0.5777 0.5777 0.8163 -57.8839 106.9285)" class="st10" width="1.04" height="0.52"/>
		<path class="st6" d="M147.11,137.47c-0.79-0.05-1.47,0.55-1.52,1.34c-0.02,0.24,0.03,0.47,0.13,0.68l0.06-0.04l0.3,0.42
			l-0.06,0.04c0.24,0.23,0.55,0.39,0.91,0.41c0.79,0.05,1.47-0.55,1.52-1.34C148.5,138.2,147.9,137.52,147.11,137.47z
			 M146.51,139.57l-0.3-0.42l0.67-0.47l0.3,0.42L146.51,139.57z"/>
		<path class="st6" d="M145.78,139.44l-0.06,0.04c0.07,0.16,0.17,0.3,0.3,0.43l0.06-0.04L145.78,139.44z"/>
		
			<rect x="146.28" y="138.86" transform="matrix(0.8163 -0.5777 0.5777 0.8163 -53.4138 110.3047)" class="st6" width="0.82" height="0.52"/>
		<g>
			<path class="st24" d="M96.15,69.36h4.37c4.31,0,7.82,3.51,7.82,7.82s-3.51,7.82-7.82,7.82h-4.37V69.36z M100.52,81.85
				c2.6,0,4.68-2.08,4.68-4.68c0-2.58-2.08-4.68-4.68-4.68h-1.26v9.36H100.52z"/>
			<path class="st24" d="M109.39,69.36h9.42v3.13h-6.31v3.11h6.31v3.13h-6.31v3.11h6.31v3.13h-9.42V69.36z"/>
			<path class="st24" d="M119.86,74.06c0-2.6,2.1-4.7,4.68-4.7c1.81,0,3.48,0.62,4.8,1.65l-2.25,2.25
				c-0.72-0.47-1.61-0.76-2.56-0.76c-0.87,0-1.57,0.7-1.57,1.57c0,0.37,0.14,0.72,0.37,1.01c0.49,0.56,1.3,0.66,2.08,0.7
				c2.56,0.12,4.52,1.9,4.52,4.54c0,2.58-2.1,4.68-4.68,4.68c-2.1,0-4-0.82-5.4-2.17l2.21-2.21c0.85,0.78,1.96,1.26,3.2,1.26
				c0.85,0,1.55-0.7,1.55-1.57c0-0.47-0.19-0.95-0.62-1.2c-0.74-0.43-1.98-0.31-2.76-0.49C121.39,78.1,119.86,76.27,119.86,74.06z"
				/>
			<path class="st24" d="M130.99,69.36h3.11v15.63h-3.11V69.36z"/>
			<path class="st24" d="M148.36,71.52l-2.21,2.23c-0.82-0.78-1.96-1.26-3.18-1.26c-2.6,0-4.7,2.1-4.7,4.68c0,2.6,2.1,4.7,4.7,4.7
				c1.53,0,2.89-0.74,3.75-1.88h-3.75v-3.13h1.55h3.13h3.11c0,0.1,0.02,0.21,0.02,0.31c0,4.31-3.51,7.82-7.82,7.82
				c-4.31,0-7.82-3.51-7.82-7.82s3.51-7.82,7.82-7.82C145.06,69.36,146.95,70.18,148.36,71.52z"/>
			<path class="st24" d="M161.74,69.36h3.11v15.63h-3.63l-6.27-10.41v10.41h-3.11V69.36h3.65l6.25,10.43V69.36z"/>
		</g>
		<path class="st10" d="M119.58,146.86c-0.79-0.05-1.47,0.55-1.52,1.34c-0.05,0.79,0.55,1.47,1.34,1.52
			c0.79,0.05,1.47-0.55,1.52-1.34C120.96,147.59,120.37,146.91,119.58,146.86z M119.7,148.61l-0.36-0.37l0.75-0.72l0.36,0.37
			L119.7,148.61z"/>
		<path class="st10" d="M138.54,143.37c-0.79-0.05-1.47,0.55-1.52,1.34c-0.05,0.79,0.55,1.47,1.34,1.52
			c0.79,0.05,1.47-0.55,1.52-1.34C139.92,144.1,139.33,143.42,138.54,143.37z M138.13,144.95l-0.55-0.88l0.44-0.27l0.55,0.88
			L138.13,144.95z M138.87,144.97l-0.3-0.42l0.85-0.6l0.3,0.42L138.87,144.97z"/>
	</g>
</g>
</svg>
