<?xml version="1.0" encoding="utf-8"?>
<!-- Generator: Adobe Illustrator 23.0.5, SVG Export Plug-In . SVG Version: 6.00 Build 0)  -->
<svg version="1.1" id="Capa_1" xmlns="http://www.w3.org/2000/svg" xmlns:xlink="http://www.w3.org/1999/xlink" x="0px" y="0px"
	 viewBox="0 0 29 29" style="enable-background:new 0 0 29 29;" xml:space="preserve">
<style type="text/css">
	.st0{fill:#DBDBDB;}
</style>
<path class="st0" d="M14.5,0C6.5,0,0,6.6,0,14.6C0,22.5,6.5,29,14.5,29S29,22.5,29,14.6C29,6.6,22.5,0,14.5,0z M17,27
	c-0.8,0.2-1.7,0.3-2.5,0.3S12.8,27.2,12,27v-4c0-1,0.3-1.3,0.6-1.8c0.2-0.2,0.3-0.4,1.1-1.5l-1.3-0.2C9,19,7.7,17.3,7.2,15.9
	c-0.7-1.8-0.3-4.1,0.9-5.5c0.2-0.2,0.3-0.6,0.2-1C7.9,8.7,8,7.4,8.1,6.9C9,7.1,10,7.7,10.7,8.2c0.4,0.2,0.5,0.2,0.7,0.2
	C12,8.3,13,8,14.5,8c0.9,0,1.9,0.1,2.8,0.4c0.2,0,0.4,0.1,0.9-0.1c0.8-0.5,1.7-1.1,2.6-1.2C21,7.6,21,8.8,20.7,9.6
	c-0.1,0.4,0,0.8,0.2,1c1.2,1.4,1.6,3.7,0.9,5.5c-0.5,1.4-1.9,3.1-5.2,3.6l-1.3,0.2c0.8,1.2,0.9,1.4,1.1,1.5c0.3,0.5,0.6,0.8,0.6,1.8
	C17,23.2,17,27,17,27z M18.7,26.6v-3.5c0-1-0.2-1.6-0.5-2.1c2.6-0.7,4.4-2.2,5.2-4.4c0.9-2.3,0.5-5.1-1-7c0.3-1.1,0.3-3-0.4-3.8
	c-0.3-0.4-0.6-0.6-1.1-0.6l0,0c-1.3,0.1-2.4,0.7-3.5,1.4c-1-0.3-2.1-0.4-3.1-0.4c-1.1,0-2.1,0.2-3,0.4c-1.2-0.7-2.2-1.3-3.6-1.4
	c-0.4,0-0.8,0.2-1.1,0.6C6.2,6.6,6.2,8.5,6.5,9.6c-1.4,1.9-1.8,4.7-1,7c0.8,2.2,2.7,3.7,5.2,4.4c-0.2,0.4-0.4,0.8-0.4,1.5
	c-0.5,0.2-1,0.2-1.4,0.1s-0.8-0.4-1.1-0.9c-0.7-1.1-1.8-2.1-3.1-1.9l0.1,1.7c0.6-0.2,1.2,0.5,1.5,1c0.5,0.9,1.2,1.4,2.1,1.7
	c0.6,0.2,1.2,0.2,1.8,0v2.3c-4.9-1.7-8.6-6.5-8.6-12c0-7,5.8-12.9,12.8-12.9s12.8,5.8,12.8,12.9C27.3,20.1,23.7,24.8,18.7,26.6z"/>
</svg>
