<?xml version="1.0" encoding="utf-8"?>
<!-- Generator: Adobe Illustrator 23.0.5, SVG Export Plug-In . SVG Version: 6.00 Build 0)  -->
<svg version="1.1" id="Capa_1" xmlns="http://www.w3.org/2000/svg" xmlns:xlink="http://www.w3.org/1999/xlink" x="0px" y="0px"
	 viewBox="0 0 27 27" style="enable-background:new 0 0 27 27;" xml:space="preserve">
<style type="text/css">
	.st0{fill:#DBDBDB;}
</style>
<g>
	<path class="st0" d="M27,7.9c-0.1-1.4-0.3-2.4-0.6-3.3c-0.3-0.9-0.9-1.7-1.6-2.4S23.3,1,22.4,0.6C21.5,0.3,20.6,0,19.1,0
		c-1.4,0-1.9,0-5.5,0C9.9,0,9.4,0,8,0.1c-1.4,0-2.4,0.3-3.3,0.6S3,1.6,2.3,2.3C1.6,2.9,1.1,3.8,0.8,4.7C0.4,5.5,0.2,6.5,0.1,7.9
		C0.1,9.4,0,9.8,0,13.5s0,4.1,0.1,5.6c0.1,1.4,0.3,2.4,0.6,3.3s0.9,1.7,1.6,2.4C3,25.4,3.8,26,4.7,26.3s1.8,0.6,3.3,0.6
		C9.4,27,9.9,27,13.5,27c3.7,0,4.1,0,5.6-0.1c1.4-0.1,2.4-0.3,3.3-0.6c1.8-0.7,3.2-2.1,4-4c0.3-0.9,0.6-1.8,0.6-3.3
		c0.1-1.4,0.1-1.9,0.1-5.6C27,9.8,27,9.4,27,7.9z M24.5,19c-0.1,1.3-0.3,2-0.5,2.5c-0.5,1.2-1.4,2.1-2.6,2.6
		c-0.5,0.2-1.2,0.4-2.5,0.5c-1.4,0.1-1.9,0.1-5.5,0.1s-4,0-5.5-0.1c-1.3-0.1-2-0.3-2.5-0.5C5,23.8,4.5,23.5,4,23
		c-0.4-0.4-0.8-1-1-1.6C2.9,21,2.6,20.3,2.6,19c-0.1-1.4-0.1-1.9-0.1-5.5s0-4,0.1-5.5c0-1.3,0.3-2,0.4-2.4C3.3,5,3.6,4.4,4.1,4
		c0.4-0.4,1-0.8,1.6-1c0.5-0.2,1.2-0.4,2.5-0.5c1.4-0.1,1.9-0.1,5.5-0.1s4,0,5.5,0.1c1.3,0.1,2,0.3,2.5,0.5c0.6,0.2,1.1,0.6,1.6,1
		c0.4,0.4,0.8,1,1,1.6c0.2,0.5,0.4,1.2,0.5,2.5c0.1,1.4,0.1,1.9,0.1,5.5C24.6,17.1,24.6,17.5,24.5,19z"/>
	<path class="st0" d="M13.6,6.6c-3.8,0-6.9,3.1-6.9,6.9s3.1,6.9,6.9,6.9s6.9-3.1,6.9-6.9S17.4,6.6,13.6,6.6z M13.6,18
		c-2.5,0-4.5-2-4.5-4.5s2-4.5,4.5-4.5C16,9,18,11,18,13.5S16,18,13.6,18z"/>
	<path class="st0" d="M22.4,6.3c0,0.9-0.7,1.6-1.6,1.6s-1.6-0.7-1.6-1.6s0.7-1.6,1.6-1.6C21.7,4.7,22.4,5.4,22.4,6.3z"/>
</g>
</svg>
