<?xml version="1.0" encoding="utf-8"?>
<!-- Generator: Adobe Illustrator 23.0.5, SVG Export Plug-In . SVG Version: 6.00 Build 0)  -->
<svg version="1.1" id="Capa_1" xmlns="http://www.w3.org/2000/svg" xmlns:xlink="http://www.w3.org/1999/xlink" x="0px" y="0px"
	 viewBox="0 0 28 28" style="enable-background:new 0 0 28 28;" xml:space="preserve">
<style type="text/css">
	.st0{fill:#DBDBDB;}
</style>
<path class="st0" d="M8.8,23.1H4.9V10.8h3.8v12.3H8.8z M9.1,6.8c0-1.2-1-2.2-2.2-2.2s-2.2,1-2.2,2.2S5.7,9,6.9,9
	C8.1,9.1,9.1,8.1,9.1,6.8z M23.1,16.3c0-3.3-0.7-5.8-4.6-5.8c-1.9,0-3.1,0.9-3.6,1.9l0,0v-1.7h-3.7v12.4h3.7V17
	c0-1.6,0.4-3.2,2.4-3.2s2,1.8,2,3.3v6h3.8C23.1,23.1,23.1,16.3,23.1,16.3z M28,24.7V3.3C28,1.5,26.5,0,24.7,0H3.3C1.5,0,0,1.5,0,3.3
	v21.4C0,26.5,1.5,28,3.3,28h21.4C26.5,28,28,26.5,28,24.7z M24.7,2.2c0.6,0,1.1,0.5,1.1,1.1v21.4c0,0.6-0.5,1.1-1.1,1.1H3.3
	c-0.6,0-1.1-0.5-1.1-1.1V3.3c0-0.6,0.5-1.1,1.1-1.1C3.3,2.2,24.7,2.2,24.7,2.2z"/>
</svg>
