<?xml version="1.0" encoding="utf-8"?>
<!-- Generator: Adobe Illustrator 23.0.5, SVG Export Plug-In . SVG Version: 6.00 Build 0)  -->
<svg version="1.1" id="Predeterminado" xmlns="http://www.w3.org/2000/svg" xmlns:xlink="http://www.w3.org/1999/xlink" x="0px"
	 y="0px" viewBox="0 0 2180 830.3" style="enable-background:new 0 0 2180 830.3;" xml:space="preserve">
<style type="text/css">
	.st0{enable-background:new    ;}
	.st1{fill:#B0B4C6;}
	.st2{fill:#109E91;}
	.st3{fill:#707487;}
	.st4{opacity:0.4;fill:#1AC6B1;enable-background:new    ;}
	.st5{opacity:0.4;fill:#8488A0;enable-background:new    ;}
	.st6{fill:#FFFFFF;}
</style>
<g class="st0">
	<path class="st1" d="M929.9,375.7H816.5c-3.1,0-5.3-0.7-6.7-2.1s-2.1-3.6-2.1-6.7V208.5c0-3.1,0.7-5.3,2.1-6.7
		c1.4-1.4,3.6-2.1,6.7-2.1h113.4c3.1,0,5.3,0.7,6.7,2.1c1.4,1.4,2.1,3.6,2.1,6.7v28.6c0,3.1-0.7,5.3-2.1,6.7
		c-1.4,1.4-3.6,2.1-6.7,2.1h-67.5v18.8h47.7c3.1,0,5.3,0.7,6.7,2.1s2.1,3.6,2.1,6.7v26.2c0,3.1-0.7,5.3-2.1,6.7
		c-1.4,1.4-3.6,2.1-6.7,2.1h-47.7v21h67.5c3.1,0,5.3,0.7,6.7,2.1s2.1,3.6,2.1,6.7v28.6c0,3.1-0.7,5.3-2.1,6.7
		C935.3,375,933,375.7,929.9,375.7z"/>
	<path class="st1" d="M1092,375.7H970.8c-3.1,0-5.3-0.7-6.7-2.1s-2.1-3.6-2.1-6.7v-32.8c0-3.1,0.5-5.8,1.5-8.2c1-2.4,2.5-4.7,4.6-7
		l59.4-72.1h-52.3c-3.1,0-5.3-0.7-6.7-2.1c-1.4-1.4-2.1-3.6-2.1-6.7v-29.6c0-3.1,0.7-5.3,2.1-6.7c1.4-1.4,3.6-2.1,6.7-2.1h112.4
		c3.1,0,5.3,0.7,6.7,2.1c1.4,1.4,2.1,3.6,2.1,6.7V245c0,3.3-0.5,6.1-1.5,8.4c-1,2.4-2.5,4.7-4.6,7l-56.7,68.7h58.4
		c3.1,0,5.3,0.7,6.7,2.1c1.4,1.4,2.1,3.6,2.1,6.7V367c0,3.1-0.7,5.3-2.1,6.7C1097.3,375,1095.1,375.7,1092,375.7z"/>
	<path class="st1" d="M1251.1,375.7h-113.4c-3.1,0-5.3-0.7-6.7-2.1c-1.4-1.4-2.1-3.6-2.1-6.7V208.5c0-3.1,0.7-5.3,2.1-6.7
		s3.6-2.1,6.7-2.1h113.4c3.1,0,5.3,0.7,6.7,2.1c1.4,1.4,2.1,3.6,2.1,6.7v28.6c0,3.1-0.7,5.3-2.1,6.7s-3.6,2.1-6.7,2.1h-67.5v18.8
		h47.7c3.1,0,5.3,0.7,6.7,2.1c1.4,1.4,2.1,3.6,2.1,6.7v26.2c0,3.1-0.7,5.3-2.1,6.7c-1.4,1.4-3.6,2.1-6.7,2.1h-47.7v21h67.5
		c3.1,0,5.3,0.7,6.7,2.1c1.4,1.4,2.1,3.6,2.1,6.7v28.6c0,3.1-0.7,5.3-2.1,6.7C1256.4,375,1254.2,375.7,1251.1,375.7z"/>
	<path class="st1" d="M1379.4,397.7h-37.6c-3.1,0-5.3-0.7-6.7-2.1c-1.4-1.4-2.1-3.6-2.1-6.7v-13.4c-18.9-2.8-31.7-8.4-38.3-17
		c-6.6-8.6-9.9-18.9-9.9-31.2v-81.1c0-7.5,1.1-14.3,3.3-20.4c2.2-6.1,6.1-11.4,11.7-15.8c5.6-4.4,13.4-7.8,23.3-10.3
		c9.9-2.4,22.5-3.7,37.6-3.7s27.7,1.2,37.5,3.7c9.9,2.4,17.6,5.9,23.2,10.3c5.6,4.4,9.5,9.7,11.7,15.8s3.3,12.9,3.3,20.4v81.1
		c0,6.2-0.7,11.9-2.2,17.2c-1.5,5.3-4,10-7.6,14.1s-8.5,7.6-14.8,10.5s-14.2,5.1-23.8,6.4v13.4c0,3.1-0.7,5.3-2.1,6.7
		C1384.8,397,1382.5,397.7,1379.4,397.7z M1340.3,322c0,3.3,1.2,6,3.7,8.2c2.4,2.2,8.1,3.3,16.9,3.3s14.4-1.1,16.9-3.3
		c2.4-2.2,3.7-4.9,3.7-8.2v-66.7c0-3.1-1.2-5.7-3.7-7.9c-2.4-2.2-8.1-3.3-16.9-3.3s-14.4,1.1-16.9,3.3c-2.4,2.2-3.7,4.8-3.7,7.9V322
		z"/>
	<path class="st1" d="M1617.5,329.5c0,7.5-1.1,14.3-3.3,20.4c-2.2,6.1-6.1,11.3-11.7,15.6c-5.6,4.3-13.3,7.7-23.1,10.1
		s-22.2,3.7-37.4,3.7c-15.2,0-27.6-1.2-37.4-3.7s-17.5-5.8-23.1-10.1c-5.6-4.3-9.5-9.5-11.7-15.6s-3.3-12.9-3.3-20.4v-121
		c0-3.1,0.7-5.3,2.1-6.7s3.6-2.1,6.7-2.1h38.4c3.1,0,5.3,0.7,6.7,2.1c1.4,1.4,2.1,3.6,2.1,6.7V320c0,3.3,1.2,6,3.7,8.2
		c2.4,2.2,7.9,3.3,16.4,3.3c8.6,0,14.2-1.1,16.6-3.3c2.4-2.2,3.7-4.9,3.7-8.2V208.5c0-3.1,0.7-5.3,2.1-6.7s3.6-2.1,6.7-2.1h37.2
		c3.1,0,5.3,0.7,6.7,2.1c1.4,1.4,2.1,3.6,2.1,6.7v121H1617.5z"/>
	<path class="st1" d="M1654.9,375.7c-3.1,0-5.3-0.7-6.7-2.1c-1.4-1.4-2.1-3.6-2.1-6.7v-29.1c0-3.1,0.7-5.3,2.1-6.7
		c1.4-1.4,3.6-2.1,6.7-2.1h24.2v-82.1h-24.2c-3.1,0-5.3-0.7-6.7-2.1c-1.4-1.4-2.1-3.6-2.1-6.7v-29.6c0-3.1,0.7-5.3,2.1-6.7
		s3.6-2.1,6.7-2.1H1759c3.1,0,5.3,0.7,6.7,2.1c1.4,1.4,2.1,3.6,2.1,6.7v29.6c0,3.1-0.7,5.3-2.1,6.7s-3.6,2.1-6.7,2.1h-23.7V329h23.7
		c3.1,0,5.3,0.7,6.7,2.1c1.4,1.4,2.1,3.6,2.1,6.7v29.1c0,3.1-0.7,5.3-2.1,6.7c-1.4,1.4-3.6,2.1-6.7,2.1L1654.9,375.7L1654.9,375.7z"
		/>
	<path class="st1" d="M1920.1,375.7h-113.4c-3.1,0-5.3-0.7-6.7-2.1c-1.4-1.4-2.1-3.6-2.1-6.7V208.5c0-3.1,0.7-5.3,2.1-6.7
		s3.6-2.1,6.7-2.1h113.4c3.1,0,5.3,0.7,6.7,2.1c1.4,1.4,2.1,3.6,2.1,6.7v28.6c0,3.1-0.7,5.3-2.1,6.7s-3.6,2.1-6.7,2.1h-67.5v18.8
		h47.7c3.1,0,5.3,0.7,6.7,2.1c1.4,1.4,2.1,3.6,2.1,6.7v26.2c0,3.1-0.7,5.3-2.1,6.7c-1.4,1.4-3.6,2.1-6.7,2.1h-47.7v21h67.5
		c3.1,0,5.3,0.7,6.7,2.1c1.4,1.4,2.1,3.6,2.1,6.7v28.6c0,3.1-0.7,5.3-2.1,6.7C1925.4,375,1923.1,375.7,1920.1,375.7z"/>
	<path class="st1" d="M2090.9,375.7h-124.4c-3.1,0-5.3-0.7-6.7-2.1c-1.4-1.4-2.1-3.6-2.1-6.7V208.5c0-3.1,0.7-5.3,2.1-6.7
		s3.6-2.1,6.7-2.1h37.9c3.1,0,5.3,0.7,6.7,2.1c1.4,1.4,2.1,3.6,2.1,6.7v121h33.5v-39.6c0-3.1,0.7-5.3,2.1-6.7
		c1.4-1.4,3.6-2.1,6.7-2.1h35.4c3.1,0,5.3,0.7,6.7,2.1s2.1,3.6,2.1,6.7v77c0,3.1-0.7,5.3-2.1,6.7
		C2096.2,375,2094,375.7,2090.9,375.7z"/>
</g>
<g>
	<path class="st2" d="M255.4,174.3c0,11,0,22,0,33c0,7.4,6,13.4,13.4,13.4c40.9,0,81.7,0,122.6,0c7.4,0,13.4-6,13.4-13.4
		c0-11,0-22,0-33c0-7.4-6-13.4-13.4-13.4c-40.9,0-81.7,0-122.5,0C261.4,160.9,255.4,166.9,255.4,174.3z"/>
	<path class="st3" d="M411.4,238c7.4,0,13.4-6,13.4-13.4c0-20.5,0-41,0-61.4c0-7.4,6-13.4,13.4-13.4c8.9,0,17.8,0,26.7,0
		c7.4,0,13.4,6,13.4,13.4c0,38.3,0,76.6,0,114.9c0,7.4-6,13.4-13.4,13.4c-97.6,0-195.2,0-292.9,0c-12.1,21.1-36.9,31.4-60.4,25.2
		s-39.9-27.7-39.9-52s16.4-45.6,39.9-51.9s48.3,4.1,60.4,25.2C251.8,238,331.6,238,411.4,238z M145.1,287
		c12.3-10.8,13.5-29.6,2.6-41.9c-10.8-12.3-29.6-13.5-41.9-2.6c-12.3,10.8-13.5,29.6-2.7,41.9C114,296.6,132.8,297.8,145.1,287z"/>
	<path class="st4" d="M260.7,180.1c0,11.2,0,22.4,0,33.6c0,7.5,6.1,13.6,13.6,13.6c41.6,0,83.1,0,124.7,0c7.5,0,13.6-6.1,13.6-13.6
		c0-11.2,0-22.4,0-33.6c0-7.5-6.1-13.6-13.6-13.6c-41.6,0-83.1,0-124.7,0C266.8,166.5,260.7,172.6,260.7,180.1z"/>
	<path class="st5" d="M419.5,244.9c7.5,0,13.6-6.1,13.6-13.6c0-20.8,0-41.7,0-62.5c0-7.5,6.1-13.6,13.6-13.6c9.1,0,18.1,0,27.2,0
		c7.5,0,13.6,6.1,13.6,13.6c0,39,0,77.9,0,116.9c0,7.5-6.1,13.6-13.6,13.6c-99.3,0-198.7,0-298,0c-12.3,21.5-37.6,32-61.5,25.6
		s-40.6-28-40.6-52.8s16.7-46.4,40.6-52.8s49.2,4.1,61.5,25.6C257.1,244.9,338.3,244.9,419.5,244.9z M148.4,294.8
		c12.5-11,13.7-30.1,2.7-42.6s-30.1-13.7-42.6-2.7c-12.5,11-13.7,30.1-2.7,42.6C116.8,304.6,135.9,305.8,148.4,294.8z"/>
	<path class="st4" d="M598,606.8c0-11.2,0-22.4,0-33.6c0-7.5-6.1-13.6-13.6-13.6c-41.6,0-83.1,0-124.7,0c-7.5,0-13.6,6.1-13.6,13.6
		c0,11.2,0,22.4,0,33.6c0,7.5,6.1,13.6,13.6,13.6c41.6,0,83.1,0,124.7,0C592,620.4,598,614.3,598,606.8z"/>
	<path class="st5" d="M439.3,542c-7.5,0-13.6,6.1-13.6,13.6c0,20.8,0,41.7,0,62.5c0,7.5-6.1,13.6-13.6,13.6c-9.1,0-18.1,0-27.2,0
		c-7.5,0-13.6-6.1-13.6-13.6c0-39,0-78,0-116.9c0-7.5,6.1-13.6,13.6-13.6c99.3,0,198.7,0,298,0c12.3-21.5,37.5-32,61.5-25.6
		c23.9,6.4,40.6,28,40.6,52.8c0,24.8-16.7,46.4-40.6,52.8s-49.2-4.1-61.5-25.6C601.7,542,520.5,542,439.3,542z M710.3,492.2
		c-12.5,11-13.7,30.1-2.7,42.6s30.1,13.7,42.6,2.7s13.7-30.1,2.7-42.6C741.9,482.4,722.8,481.1,710.3,492.2z"/>
	<path class="st2" d="M603.3,612.7c0-11,0-22,0-33c0-7.4-6-13.4-13.4-13.4c-40.8,0-81.7,0-122.5,0c-7.4,0-13.4,6-13.4,13.4
		c0,11,0,22,0,33c0,7.4,6,13.4,13.4,13.4c40.9,0,81.7,0,122.5,0C597.4,626,603.3,620.1,603.3,612.7z"/>
	<path class="st3" d="M447.3,549c-7.4,0-13.4,6-13.4,13.4c0,20.5,0,41,0,61.4c0,7.4-6,13.4-13.4,13.4c-8.9,0-17.8,0-26.7,0
		c-7.4,0-13.4-6-13.4-13.4c0-38.3,0-76.6,0-114.9c0-7.4,6-13.4,13.4-13.4c97.6,0,195.2,0,292.9,0c12.1-21.1,36.9-31.4,60.4-25.2
		c23.5,6.3,39.9,27.6,39.9,51.9c0,24.3-16.4,45.6-39.9,51.9s-48.3-4.1-60.4-25.2C606.9,549,527.1,549,447.3,549z M713.7,500
		c-12.3,10.8-13.5,29.6-2.7,41.9c10.8,12.3,29.6,13.5,41.9,2.7c12.3-10.8,13.5-29.6,2.7-41.9C744.7,490.4,726,489.2,713.7,500z"/>
	<path class="st5" d="M637.4,225.4c-11.2,0-22.4,0-33.6,0c-7.5,0-13.6,6.1-13.6,13.6c0,41.6,0,83.1,0,124.7
		c0,7.5,6.1,13.6,13.6,13.6c11.2,0,22.4,0,33.6,0c7.5,0,13.6-6.1,13.6-13.6c0-41.6,0-83.1,0-124.7
		C651,231.5,644.9,225.4,637.4,225.4z"/>
	<path class="st4" d="M572.6,384.2c0,7.5,6.1,13.6,13.6,13.6c20.8,0,41.7,0,62.5,0c7.5,0,13.6,6.1,13.6,13.6c0,9.1,0,18.1,0,27.2
		c0,7.5-6.1,13.6-13.6,13.6c-39,0-78,0-116.9,0c-7.5,0-13.6-6.1-13.6-13.6c0-99.3,0-198.7,0-298c-21.5-12.3-32-37.6-25.6-61.5
		s28-40.6,52.8-40.6s46.4,16.7,52.8,40.6s-4.1,49.2-25.6,61.5C572.6,221.8,572.6,303,572.6,384.2z M522.7,113.2
		c11,12.5,30.1,13.7,42.6,2.7S579,85.8,568,73.3s-30.1-13.7-42.6-2.7S511.7,100.7,522.7,113.2z"/>
	<path class="st3" d="M643.2,220.1c-11,0-22,0-33,0c-7.4,0-13.4,6-13.4,13.4c0,40.9,0,81.7,0,122.5c0,7.4,6,13.4,13.4,13.4
		c11,0,22,0,33,0c7.4,0,13.4-6,13.4-13.4c0-40.9,0-81.7,0-122.6C656.6,226.1,650.6,220.1,643.2,220.1z"/>
	<path class="st2" d="M579.5,376.2c0,7.4,6,13.4,13.4,13.4c20.5,0,41,0,61.4,0c7.4,0,13.4,6,13.4,13.4c0,8.9,0,17.8,0,26.7
		c0,7.4-6,13.4-13.4,13.4c-38.3,0-76.6,0-114.9,0c-7.4,0-13.4-6-13.4-13.4c0-97.6,0-195.2,0-292.9c-21.1-12.1-31.4-36.9-25.2-60.4
		s27.6-39.9,51.9-39.9c24.3,0,45.6,16.4,51.9,39.9s-4.1,48.3-25.2,60.4C579.5,216.6,579.5,296.4,579.5,376.2z M530.6,109.8
		c10.8,12.3,29.6,13.5,41.9,2.7c12.3-10.8,13.5-29.6,2.7-41.9s-29.6-13.5-41.9-2.7C520.9,78.8,519.7,97.5,530.6,109.8z"/>
	<path class="st5" d="M221.4,561.5c11.2,0,22.4,0,33.6,0c7.5,0,13.6-6.1,13.6-13.6c0-41.6,0-83.1,0-124.7c0-7.5-6.1-13.6-13.6-13.6
		c-11.2,0-22.4,0-33.6,0c-7.5,0-13.6,6.1-13.6,13.6c0,41.6,0,83.1,0,124.7C207.8,555.5,213.9,561.5,221.4,561.5z"/>
	<path class="st4" d="M286.2,402.8c0-7.5-6.1-13.6-13.6-13.6c-20.8,0-41.7,0-62.5,0c-7.5,0-13.6-6.1-13.6-13.6c0-9.1,0-18.1,0-27.2
		c0-7.5,6.1-13.6,13.6-13.6c39,0,77.9,0,116.9,0c7.5,0,13.6,6.1,13.6,13.6c0,99.3,0,198.7,0,298c21.5,12.3,32,37.5,25.6,61.5
		c-6.4,23.9-28,40.6-52.8,40.6s-46.4-16.7-52.8-40.6s4.1-49.2,25.6-61.5C286.2,565.2,286.2,484,286.2,402.8z M336,673.8
		c-11-12.5-30.1-13.7-42.6-2.7s-13.7,30.1-2.7,42.6s30.1,13.7,42.6,2.7C345.9,705.4,347.1,686.3,336,673.8z"/>
	<path class="st3" d="M215.5,566.8c11,0,22,0,33,0c7.4,0,13.4-6,13.4-13.4c0-40.8,0-81.7,0-122.5c0-7.4-6-13.4-13.4-13.4
		c-11,0-22,0-33,0c-7.4,0-13.4,6-13.4,13.4c0,40.9,0,81.7,0,122.5C202.1,560.8,208.1,566.8,215.5,566.8z"/>
	<path class="st2" d="M279.2,410.8c0-7.4-6-13.4-13.4-13.4c-20.5,0-41,0-61.4,0c-7.4,0-13.4-6-13.4-13.4c0-8.9,0-17.8,0-26.7
		c0-7.4,6-13.4,13.4-13.4c38.3,0,76.6,0,114.9,0c7.4,0,13.4,6,13.4,13.4c0,97.6,0,195.2,0,292.9c21.1,12.1,31.4,36.9,25.2,60.4
		c-6.3,23.5-27.6,39.9-51.9,39.9s-45.6-16.4-51.9-39.9c-6.3-23.5,4.1-48.3,25.2-60.4C279.2,570.4,279.2,490.6,279.2,410.8z
		 M328.2,677.2c-10.8-12.3-29.6-13.5-41.9-2.7s-13.5,29.6-2.6,41.9c10.8,12.3,29.6,13.5,41.9,2.7C337.8,708.2,339,689.5,328.2,677.2
		z"/>
</g>
<g>
	<g class="st0">
		<path class="st6" d="M917.8,369.4H804.4c-3.1,0-5.3-0.7-6.7-2.1s-2.1-3.6-2.1-6.7V202.2c0-3.1,0.7-5.3,2.1-6.7
			c1.4-1.4,3.6-2.1,6.7-2.1h113.4c3.1,0,5.3,0.7,6.7,2.1c1.4,1.4,2.1,3.6,2.1,6.7v28.6c0,3.1-0.7,5.3-2.1,6.7
			c-1.4,1.4-3.6,2.1-6.7,2.1h-67.5v18.8H898c3.1,0,5.3,0.7,6.7,2.1s2.1,3.6,2.1,6.7v26.2c0,3.1-0.7,5.3-2.1,6.7
			c-1.4,1.4-3.6,2.1-6.7,2.1h-47.7v21h67.5c3.1,0,5.3,0.7,6.7,2.1s2.1,3.6,2.1,6.7v28.6c0,3.1-0.7,5.3-2.1,6.7
			C923.1,368.7,920.9,369.4,917.8,369.4z"/>
		<path class="st6" d="M1079.8,369.4H958.6c-3.1,0-5.3-0.7-6.7-2.1s-2.1-3.6-2.1-6.7v-32.8c0-3.1,0.5-5.8,1.5-8.2
			c1-2.4,2.5-4.7,4.6-7l59.4-72.1H963c-3.1,0-5.3-0.7-6.7-2.1c-1.4-1.4-2.1-3.6-2.1-6.7v-29.6c0-3.1,0.7-5.3,2.1-6.7
			c1.4-1.4,3.6-2.1,6.7-2.1h112.4c3.1,0,5.3,0.7,6.7,2.1c1.4,1.4,2.1,3.6,2.1,6.7v36.4c0,3.3-0.5,6.1-1.5,8.4c-1,2.4-2.5,4.7-4.6,7
			l-56.7,68.7h58.4c3.1,0,5.3,0.7,6.7,2.1c1.4,1.4,2.1,3.6,2.1,6.7v29.1c0,3.1-0.7,5.3-2.1,6.7
			C1085.2,368.7,1082.9,369.4,1079.8,369.4z"/>
		<path class="st6" d="M1238.9,369.4h-113.4c-3.1,0-5.3-0.7-6.7-2.1c-1.4-1.4-2.1-3.6-2.1-6.7V202.2c0-3.1,0.7-5.3,2.1-6.7
			s3.6-2.1,6.7-2.1h113.4c3.1,0,5.3,0.7,6.7,2.1c1.4,1.4,2.1,3.6,2.1,6.7v28.6c0,3.1-0.7,5.3-2.1,6.7s-3.6,2.1-6.7,2.1h-67.5v18.8
			h47.7c3.1,0,5.3,0.7,6.7,2.1c1.4,1.4,2.1,3.6,2.1,6.7v26.2c0,3.1-0.7,5.3-2.1,6.7c-1.4,1.4-3.6,2.1-6.7,2.1h-47.7v21h67.5
			c3.1,0,5.3,0.7,6.7,2.1c1.4,1.4,2.1,3.6,2.1,6.7v28.6c0,3.1-0.7,5.3-2.1,6.7C1244.3,368.7,1242,369.4,1238.9,369.4z"/>
		<path class="st6" d="M1367.2,391.4h-37.6c-3.1,0-5.3-0.7-6.7-2.1c-1.4-1.4-2.1-3.6-2.1-6.7v-13.4c-18.9-2.8-31.7-8.4-38.3-17
			c-6.6-8.6-9.9-18.9-9.9-31.2v-81.1c0-7.5,1.1-14.3,3.3-20.4c2.2-6.1,6.1-11.4,11.7-15.8c5.6-4.4,13.4-7.8,23.3-10.3
			c9.9-2.4,22.5-3.7,37.6-3.7c15.2,0,27.7,1.2,37.5,3.7c9.9,2.4,17.6,5.9,23.2,10.3c5.6,4.4,9.5,9.7,11.7,15.8s3.3,12.9,3.3,20.4
			V321c0,6.2-0.7,11.9-2.2,17.2c-1.5,5.3-4,10-7.6,14.1s-8.5,7.6-14.8,10.5s-14.2,5.1-23.8,6.4v13.4c0,3.1-0.7,5.3-2.1,6.7
			C1372.6,390.7,1370.3,391.4,1367.2,391.4z M1328.1,315.6c0,3.3,1.2,6,3.7,8.2c2.4,2.2,8.1,3.3,16.9,3.3s14.4-1.1,16.9-3.3
			c2.4-2.2,3.7-4.9,3.7-8.2v-66.7c0-3.1-1.2-5.7-3.7-7.9c-2.4-2.2-8.1-3.3-16.9-3.3s-14.4,1.1-16.9,3.3c-2.4,2.2-3.7,4.8-3.7,7.9
			V315.6z"/>
		<path class="st6" d="M1605.3,323.2c0,7.5-1.1,14.3-3.3,20.4s-6.1,11.3-11.7,15.6c-5.6,4.3-13.3,7.7-23.1,10.1
			c-9.8,2.4-22.2,3.7-37.4,3.7c-15.2,0-27.6-1.2-37.4-3.7c-9.8-2.4-17.5-5.8-23.1-10.1c-5.6-4.3-9.5-9.5-11.7-15.6
			s-3.3-12.9-3.3-20.4v-121c0-3.1,0.7-5.3,2.1-6.7s3.6-2.1,6.7-2.1h38.4c3.1,0,5.3,0.7,6.7,2.1c1.4,1.4,2.1,3.6,2.1,6.7v111.5
			c0,3.3,1.2,6,3.7,8.2c2.4,2.2,7.9,3.3,16.4,3.3c8.6,0,14.2-1.1,16.6-3.3c2.4-2.2,3.7-4.9,3.7-8.2V202.2c0-3.1,0.7-5.3,2.1-6.7
			s3.6-2.1,6.7-2.1h37.2c3.1,0,5.3,0.7,6.7,2.1c1.4,1.4,2.1,3.6,2.1,6.7v121H1605.3z"/>
		<path class="st6" d="M1642.7,369.4c-3.1,0-5.3-0.7-6.7-2.1c-1.4-1.4-2.1-3.6-2.1-6.7v-29.1c0-3.1,0.7-5.3,2.1-6.7
			c1.4-1.4,3.6-2.1,6.7-2.1h24.2v-82.1h-24.2c-3.1,0-5.3-0.7-6.7-2.1c-1.4-1.4-2.1-3.6-2.1-6.7v-29.6c0-3.1,0.7-5.3,2.1-6.7
			s3.6-2.1,6.7-2.1h104.1c3.1,0,5.3,0.7,6.7,2.1c1.4,1.4,2.1,3.6,2.1,6.7v29.6c0,3.1-0.7,5.3-2.1,6.7s-3.6,2.1-6.7,2.1h-23.7v82.1
			h23.7c3.1,0,5.3,0.7,6.7,2.1c1.4,1.4,2.1,3.6,2.1,6.7v29.1c0,3.1-0.7,5.3-2.1,6.7c-1.4,1.4-3.6,2.1-6.7,2.1H1642.7z"/>
		<path class="st6" d="M1907.9,369.4h-113.4c-3.1,0-5.3-0.7-6.7-2.1c-1.4-1.4-2.1-3.6-2.1-6.7V202.2c0-3.1,0.7-5.3,2.1-6.7
			s3.6-2.1,6.7-2.1h113.4c3.1,0,5.3,0.7,6.7,2.1c1.4,1.4,2.1,3.6,2.1,6.7v28.6c0,3.1-0.7,5.3-2.1,6.7s-3.6,2.1-6.7,2.1h-67.5v18.8
			h47.7c3.1,0,5.3,0.7,6.7,2.1c1.4,1.4,2.1,3.6,2.1,6.7v26.2c0,3.1-0.7,5.3-2.1,6.7c-1.4,1.4-3.6,2.1-6.7,2.1h-47.7v21h67.5
			c3.1,0,5.3,0.7,6.7,2.1c1.4,1.4,2.1,3.6,2.1,6.7v28.6c0,3.1-0.7,5.3-2.1,6.7C1913.2,368.7,1911,369.4,1907.9,369.4z"/>
		<path class="st6" d="M2078.7,369.4h-124.4c-3.1,0-5.3-0.7-6.7-2.1c-1.4-1.4-2.1-3.6-2.1-6.7V202.2c0-3.1,0.7-5.3,2.1-6.7
			s3.6-2.1,6.7-2.1h37.9c3.1,0,5.3,0.7,6.7,2.1c1.4,1.4,2.1,3.6,2.1,6.7v121h33.5v-39.6c0-3.1,0.7-5.3,2.1-6.7
			c1.4-1.4,3.6-2.1,6.7-2.1h35.4c3.1,0,5.3,0.7,6.7,2.1s2.1,3.6,2.1,6.7v77c0,3.1-0.7,5.3-2.1,6.7
			C2084.1,368.7,2081.8,369.4,2078.7,369.4z"/>
	</g>
</g>
<g>
	<g class="st0">
		<path class="st1" d="M1089.3,581h-59.5c-15.8,0-27.4-3.1-35.1-9.4c-7.6-6.3-11.4-16-11.4-29.1v-59c0-13.1,3.8-22.8,11.4-29.1
			c7.6-6.3,19.3-9.4,35.1-9.4h47.2c2.4,0,4.1,0.5,5.2,1.6s1.6,2.8,1.6,5.2v22.9c0,2.4-0.5,4.1-1.6,5.2s-2.8,1.6-5.2,1.6h-39.3
			c-3.9,0-6.8,0.8-8.7,2.4c-1.9,1.6-2.8,3.9-2.8,7.1v45c0,3.2,0.7,5.5,2.2,7c1.4,1.5,3.6,2.3,6.5,2.3h18.3v-29.5
			c0-2.4,0.5-4.1,1.6-5.2s2.8-1.6,5.2-1.6h29.3c2.4,0,4.1,0.5,5.2,1.6s1.6,2.8,1.6,5.2v58.4c0,2.4-0.5,4.1-1.6,5.2
			C1093.4,580.4,1091.7,581,1089.3,581z"/>
		<path class="st1" d="M1155,581h-29.1c-2.4,0-4.1-0.5-5.2-1.6s-1.6-2.8-1.6-5.2V451.7c0-2.4,0.5-4.1,1.6-5.2s2.8-1.6,5.2-1.6h62.9
			c14.1,0,23.8,2.9,29.2,8.8c5.4,5.9,8,13.5,8,22.8v8.7c0,5.3-0.8,9.8-2.4,13.5s-4.3,6.4-8.2,8c6.8,0.8,12.3,3.5,16.5,8.3
			c4.2,4.8,6.3,11.1,6.3,19.1v40.1c0,2.4-0.5,4.1-1.6,5.2c-1.1,1.1-2.8,1.6-5.2,1.6h-29.3c-2.4,0-4.1-0.5-5.2-1.6s-1.6-2.8-1.6-5.2
			v-28.9c0-2.8-0.5-4.8-1.6-6.1s-2.9-2-5.6-2h-26.5v37c0,2.4-0.5,4.1-1.6,5.2C1159.2,580.4,1157.4,581,1155,581z M1161.8,478.9v24.2
			h14.2c3.3,0,5.5-0.9,6.6-2.6s1.7-3.8,1.7-6.3v-6.4c0-2.5-0.6-4.6-1.7-6.3c-1.1-1.7-3.3-2.6-6.6-2.6L1161.8,478.9L1161.8,478.9z"/>
		<path class="st1" d="M1298.1,574.2c0,2.4-0.5,4.1-1.6,5.2c-1.1,1.1-2.8,1.6-5.2,1.6h-27.8c-2.4,0-4.1-0.5-5.2-1.6
			s-1.6-2.8-1.6-5.2v-49.9c0-3.8,0.6-8.1,1.8-13c1.2-4.9,3.1-10.6,5.6-17.2l16.4-42.9c0.8-2.1,1.9-3.7,3.5-4.7s3.6-1.5,6.1-1.5h50.8
			c2.4,0,4.4,0.5,6,1.5s2.7,2.6,3.5,4.7l16.4,42.9c2.5,6.6,4.4,12.3,5.6,17.2s1.8,9.3,1.8,13v49.9c0,2.4-0.5,4.1-1.6,5.2
			c-1.1,1.1-2.8,1.6-5.2,1.6h-28.5c-2.5,0-4.4-0.5-5.6-1.6s-1.8-2.8-1.8-5.2v-26.5h-33.4L1298.1,574.2L1298.1,574.2z M1308.9,484.6
			l-8.9,28.7h29.7l-8.9-28.7c-0.5-1.1-1-2-1.6-2.5s-1.2-0.8-2-0.8h-4.7c-0.8,0-1.4,0.3-2,0.8
			C1309.9,482.6,1309.4,483.5,1308.9,484.6z"/>
		<path class="st1" d="M1432.6,581h-28.3c-2.4,0-4.1-0.5-5.2-1.6s-1.6-2.8-1.6-5.2V451.7c0-2.4,0.5-4.1,1.6-5.2s2.8-1.6,5.2-1.6
			h19.7c2.4,0,4.4,0.4,6.1,1.1c1.7,0.8,3.4,2.1,5,4l36.7,42v-40.3c0-2.4,0.5-4.1,1.6-5.2s2.8-1.6,5.2-1.6h28.3
			c2.4,0,4.1,0.5,5.2,1.6s1.6,2.8,1.6,5.2v122.5c0,2.4-0.5,4.1-1.6,5.2c-1.1,1.1-2.8,1.6-5.2,1.6h-28.3c-2.4,0-4.1-0.5-5.2-1.6
			s-1.6-2.8-1.6-5.2V551l-32.3-39.1v62.4c0,2.4-0.5,4.1-1.6,5.2C1436.8,580.4,1435,581,1432.6,581z"/>
		<path class="st1" d="M1610.3,581h-63.7c-2.4,0-4.1-0.5-5.2-1.6s-1.6-2.8-1.6-5.2V451.7c0-2.4,0.5-4.1,1.6-5.2s2.8-1.6,5.2-1.6
			h63.7c15.7,0,27.4,3.2,35.1,9.4c7.6,6.3,11.4,16,11.4,29.1v59c0,13.1-3.8,22.8-11.4,29.1C1637.7,577.8,1626,581,1610.3,581z
			 M1582.7,481v64.3h22.5c3,0,5.3-0.8,6.7-2.3c1.4-1.5,2.2-3.8,2.2-7v-45.9c0-3.1-0.7-5.4-2.2-6.9c-1.5-1.4-3.7-2.2-6.7-2.2H1582.7z
			"/>
		<path class="st1" d="M1684.6,581c-2.4,0-4.1-0.5-5.2-1.6s-1.6-2.8-1.6-5.2v-22.5c0-2.4,0.5-4.1,1.6-5.2c1.1-1.1,2.8-1.6,5.2-1.6
			h18.7v-63.5h-18.7c-2.4,0-4.1-0.5-5.2-1.6s-1.6-2.8-1.6-5.2v-22.9c0-2.4,0.5-4.1,1.6-5.2s2.8-1.6,5.2-1.6h80.5
			c2.4,0,4.1,0.5,5.2,1.6s1.6,2.8,1.6,5.2v22.9c0,2.4-0.5,4.1-1.6,5.2s-2.8,1.6-5.2,1.6h-18.3v63.5h18.3c2.4,0,4.1,0.5,5.2,1.6
			s1.6,2.8,1.6,5.2v22.5c0,2.4-0.5,4.1-1.6,5.2c-1.1,1.1-2.8,1.6-5.2,1.6H1684.6z M1757.5,430.5l-66,8.1c-2.1,0.3-3.8-0.2-4.8-1.3
			c-1.1-1.1-1.6-2.8-1.6-4.9v-18.1c0-2.4,0.5-4.1,1.6-5s2.8-1.5,5.2-1.8l66-8.1c2.1-0.3,3.7,0.2,4.8,1.3c1.1,1.1,1.6,2.8,1.6,4.9
			v18.1c0,2.4-0.5,4.1-1.6,5C1761.6,429.7,1759.9,430.3,1757.5,430.5z"/>
		<path class="st1" d="M1833.7,574.2c0,2.4-0.5,4.1-1.6,5.2c-1.1,1.1-2.8,1.6-5.2,1.6h-27.8c-2.4,0-4.1-0.5-5.2-1.6
			s-1.6-2.8-1.6-5.2v-49.9c0-3.8,0.6-8.1,1.8-13c1.2-4.9,3.1-10.6,5.6-17.2l16.4-42.9c0.8-2.1,1.9-3.7,3.5-4.7s3.6-1.5,6.1-1.5h50.8
			c2.4,0,4.4,0.5,6,1.5s2.7,2.6,3.5,4.7l16.4,42.9c2.5,6.6,4.4,12.3,5.6,17.2s1.8,9.3,1.8,13v49.9c0,2.4-0.5,4.1-1.6,5.2
			c-1.1,1.1-2.8,1.6-5.2,1.6h-28.5c-2.5,0-4.4-0.5-5.6-1.6s-1.8-2.8-1.8-5.2v-26.5h-33.5L1833.7,574.2L1833.7,574.2z M1844.4,484.6
			l-8.9,28.7h29.7l-8.9-28.7c-0.5-1.1-1-2-1.6-2.5s-1.2-0.8-2-0.8h-4.7c-0.8,0-1.4,0.3-2,0.8
			C1845.5,482.6,1844.9,483.5,1844.4,484.6z"/>
	</g>
</g>
<g>
	<g class="st0">
		<path class="st6" d="M1081,574.1h-59.5c-15.8,0-27.4-3.1-35.1-9.4c-7.6-6.3-11.4-16-11.4-29.1v-59c0-13.1,3.8-22.8,11.4-29.1
			c7.6-6.3,19.3-9.4,35.1-9.4h47.2c2.4,0,4.1,0.5,5.2,1.6s1.6,2.8,1.6,5.2v22.9c0,2.4-0.5,4.1-1.6,5.2s-2.8,1.6-5.2,1.6h-39.3
			c-3.9,0-6.8,0.8-8.7,2.4s-2.8,3.9-2.8,7.1v45.2c0,3.2,0.7,5.5,2.2,7c1.4,1.5,3.6,2.3,6.5,2.3h18.3v-29.5c0-2.4,0.5-4.1,1.6-5.2
			s2.8-1.6,5.2-1.6h29.3c2.4,0,4.1,0.5,5.2,1.6s1.6,2.8,1.6,5.2v58.4c0,2.4-0.5,4.1-1.6,5.2C1085.1,573.6,1083.4,574.1,1081,574.1z"
			/>
		<path class="st6" d="M1146.7,574.1h-29.1c-2.4,0-4.1-0.5-5.2-1.6s-1.6-2.8-1.6-5.2V444.8c0-2.4,0.5-4.1,1.6-5.2s2.8-1.6,5.2-1.6
			h62.9c14.1,0,23.8,2.9,29.2,8.8c5.4,5.9,8,13.5,8,22.8v8.7c0,5.3-0.8,9.8-2.4,13.5s-4.3,6.4-8.2,8c6.8,0.8,12.3,3.5,16.5,8.3
			c4.2,4.8,6.3,11.1,6.3,19.1v40.1c0,2.4-0.5,4.1-1.6,5.2c-1.1,1.1-2.8,1.6-5.2,1.6H1194c-2.4,0-4.1-0.5-5.2-1.6s-1.6-2.8-1.6-5.2
			v-28.9c0-2.8-0.5-4.8-1.6-6.1s-2.9-2-5.6-2h-26.5v37c0,2.4-0.5,4.1-1.6,5.2C1150.9,573.6,1149.1,574.1,1146.7,574.1z
			 M1153.5,472.1v24.2h14.2c3.3,0,5.5-0.9,6.6-2.6s1.7-3.8,1.7-6.3V481c0-2.5-0.6-4.6-1.7-6.3c-1.1-1.7-3.3-2.6-6.6-2.6
			L1153.5,472.1L1153.5,472.1z"/>
		<path class="st6" d="M1289.8,567.3c0,2.4-0.5,4.1-1.6,5.2c-1.1,1.1-2.8,1.6-5.2,1.6h-27.8c-2.4,0-4.1-0.5-5.2-1.6
			s-1.6-2.8-1.6-5.2v-49.9c0-3.8,0.6-8.1,1.8-13c1.2-4.9,3.1-10.6,5.6-17.2l16.4-42.9c0.8-2.1,1.9-3.7,3.5-4.7s3.6-1.5,6.1-1.5h50.8
			c2.4,0,4.4,0.5,6,1.5s2.7,2.6,3.5,4.7l16.4,42.9c2.5,6.6,4.4,12.3,5.6,17.2c1.2,4.9,1.8,9.3,1.8,13v49.9c0,2.4-0.5,4.1-1.6,5.2
			c-1.1,1.1-2.8,1.6-5.2,1.6h-28.5c-2.5,0-4.4-0.5-5.6-1.6s-1.8-2.8-1.8-5.2v-26.5h-33.5L1289.8,567.3L1289.8,567.3z M1300.6,477.7
			l-8.9,28.7h29.7l-8.9-28.7c-0.5-1.1-1-2-1.6-2.5s-1.2-0.8-2-0.8h-4.7c-0.8,0-1.4,0.3-2,0.8
			C1301.6,475.8,1301.1,476.6,1300.6,477.7z"/>
		<path class="st6" d="M1424.4,574.1H1396c-2.4,0-4.1-0.5-5.2-1.6s-1.6-2.8-1.6-5.2V444.8c0-2.4,0.5-4.1,1.6-5.2s2.8-1.6,5.2-1.6
			h19.7c2.4,0,4.4,0.4,6.1,1.1s3.4,2.1,5,4l36.7,42v-40.3c0-2.4,0.5-4.1,1.6-5.2s2.8-1.6,5.2-1.6h28.3c2.4,0,4.1,0.5,5.2,1.6
			s1.6,2.8,1.6,5.2v122.5c0,2.4-0.5,4.1-1.6,5.2c-1.1,1.1-2.8,1.6-5.2,1.6h-28.3c-2.4,0-4.1-0.5-5.2-1.6s-1.6-2.8-1.6-5.2v-23.2
			l-32.3-39.1v62.4c0,2.4-0.5,4.1-1.6,5.2C1428.5,573.6,1426.7,574.1,1424.4,574.1z"/>
		<path class="st6" d="M1602,574.1h-63.7c-2.4,0-4.1-0.5-5.2-1.6s-1.6-2.8-1.6-5.2V444.8c0-2.4,0.5-4.1,1.6-5.2s2.8-1.6,5.2-1.6
			h63.7c15.7,0,27.4,3.2,35.1,9.4c7.6,6.3,11.4,16,11.4,29.1v59c0,13.1-3.8,22.8-11.4,29.1C1629.4,571,1617.7,574.1,1602,574.1z
			 M1574.4,474.1v64.3h22.5c3,0,5.3-0.8,6.7-2.3c1.4-1.5,2.2-3.8,2.2-7v-45.9c0-3.1-0.7-5.4-2.2-6.9c-1.5-1.4-3.7-2.2-6.7-2.2
			L1574.4,474.1L1574.4,474.1z"/>
		<path class="st6" d="M1676.3,574.1c-2.4,0-4.1-0.5-5.2-1.6s-1.6-2.8-1.6-5.2v-22.5c0-2.4,0.5-4.1,1.6-5.2c1.1-1.1,2.8-1.6,5.2-1.6
			h18.7v-63.5h-18.7c-2.4,0-4.1-0.5-5.2-1.6s-1.6-2.8-1.6-5.2v-22.9c0-2.4,0.5-4.1,1.6-5.2s2.8-1.6,5.2-1.6h80.5
			c2.4,0,4.1,0.5,5.2,1.6s1.6,2.8,1.6,5.2v22.9c0,2.4-0.5,4.1-1.6,5.2s-2.8,1.6-5.2,1.6h-18.3V538h18.3c2.4,0,4.1,0.5,5.2,1.6
			s1.6,2.8,1.6,5.2v22.5c0,2.4-0.5,4.1-1.6,5.2c-1.1,1.1-2.8,1.6-5.2,1.6H1676.3z M1749.2,423.7l-66,8.1c-2.1,0.3-3.8-0.2-4.8-1.3
			c-1.1-1.1-1.6-2.8-1.6-4.9v-18.1c0-2.4,0.5-4.1,1.6-5s2.8-1.5,5.2-1.8l66-8.1c2.1-0.3,3.7,0.2,4.8,1.3c1.1,1.1,1.6,2.8,1.6,4.9
			v18.1c0,2.4-0.5,4.1-1.6,5C1753.3,422.8,1751.6,423.4,1749.2,423.7z"/>
		<path class="st6" d="M1825.4,567.3c0,2.4-0.5,4.1-1.6,5.2c-1.1,1.1-2.8,1.6-5.2,1.6h-27.8c-2.4,0-4.1-0.5-5.2-1.6
			s-1.6-2.8-1.6-5.2v-49.9c0-3.8,0.6-8.1,1.8-13c1.2-4.9,3.1-10.6,5.6-17.2l16.4-42.9c0.8-2.1,1.9-3.7,3.5-4.7s3.6-1.5,6.1-1.5h50.8
			c2.4,0,4.4,0.5,6,1.5s2.7,2.6,3.5,4.7l16.4,42.9c2.5,6.6,4.4,12.3,5.6,17.2c1.2,4.9,1.8,9.3,1.8,13v49.9c0,2.4-0.5,4.1-1.6,5.2
			c-1.1,1.1-2.8,1.6-5.2,1.6h-28.5c-2.5,0-4.4-0.5-5.6-1.6s-1.8-2.8-1.8-5.2v-26.5h-33.4L1825.4,567.3L1825.4,567.3z M1836.1,477.7
			l-8.9,28.7h29.7l-8.9-28.7c-0.5-1.1-1-2-1.6-2.5s-1.2-0.8-2-0.8h-4.7c-0.8,0-1.4,0.3-2,0.8
			C1837.2,475.8,1836.6,476.6,1836.1,477.7z"/>
	</g>
</g>
</svg>
